<svg width="512" height="512" viewBox="0 0 512 512" fill="none" xmlns="http://www.w3.org/2000/svg">
<circle cx="256.542" cy="255.96" r="162.455" fill="#6A153B"/>
<circle cx="256.542" cy="255.96" r="126.354" fill="#EC202A"/>
<circle cx="256.541" cy="255.96" r="84.6987" fill="#6A153B"/>
<circle cx="256.542" cy="255.96" r="52.7631" fill="#EC202A"/>
<circle cx="256.542" cy="255.96" r="18.0505" fill="#6A153B"/>
<path d="M320.376 178.424C320.376 166.869 328.609 156.955 339.966 154.832L472.633 130.035C473.863 129.805 475 130.749 475 132.001V207.928C475 219.483 466.767 229.397 455.41 231.52L356.503 250.007V425.835C356.503 452.172 327.065 473.523 290.751 473.523C254.438 473.523 225 452.172 225 425.835C225 399.498 254.438 378.147 290.751 378.147C301.408 378.147 311.473 379.986 320.376 383.25V178.424Z" fill="#FAA71B"/>
<circle cx="101" cy="415" r="29" fill="#EC202A"/>
<circle cx="448" cy="362" r="11" fill="#6A153B"/>
</svg>
