<?xml version="1.0" encoding="utf-8"?>
<!-- Generator: Adobe Illustrator 21.0.0, SVG Export Plug-In . SVG Version: 6.00 Build 0)  -->
<svg version="1.1" id="Layer_3" xmlns="http://www.w3.org/2000/svg" xmlns:xlink="http://www.w3.org/1999/xlink" x="0px" y="0px"
	 viewBox="0 0 333.2 180.6" style="enable-background:new 0 0 333.2 180.6;" xml:space="preserve">
<style type="text/css">
	.st0{fill:#CE0036;}
	.st1{fill:url(#SVGID_1_);}
	.st2{fill:url(#_Path__1_);}
	.st3{opacity:6.000000e-02;fill:#FFFFFF;enable-background:new    ;}
	.st4{fill:#B20037;}
	.st5{fill:#FFFFFF;}
	.st6{fill:#EDEDED;}
</style>
<g>
	<g id="_Group_">
		<path class="st0" d="M244.9,146.4L208,82.6c-2.2-3.8-2.7-7.7-1.6-12c1.2-4.2,3.7-7.3,7.4-9.6l64-36.9c2.4-1.4,4.9-2.1,7.4-2.1
			c1.1,0,2.2,0.1,3.3,0.4l-10-17.3c-1.4-2.3-3.4-3.8-6.2-4.8c-2.5-0.8-4.8-0.5-7.8,0.7L5.1,92.5c-2.5,1.1-4.2,3.2-4.9,6.2
			c-0.6,2.8-0.2,4.8,0.9,7.7l24.1,69c1.4,2.4,3.4,4,6.2,4.6c2.8,0.8,6,0.4,8.7,0.2l225.4-18.7l-13-8.4
			C249.4,151.8,246.8,149.6,244.9,146.4z"/>
	</g>
	
		<radialGradient id="SVGID_1_" cx="223.4912" cy="698.7396" r="78.6516" gradientTransform="matrix(1 0 0 1 0 -611.8694)" gradientUnits="userSpaceOnUse">
		<stop  offset="0" style="stop-color:#980036"/>
		<stop  offset="1" style="stop-color:#CE0036"/>
	</radialGradient>
	<path class="st1" d="M278.4,5.2c-1.4-2.3-3.4-3.8-6.2-4.8c-2.5-0.8-5.1-0.3-7.7,0.9l-89.2,51.6c5.4,5.4,12.5,8.7,20.1,9.4l15,1.3
		c1-1,2.1-1.8,3.3-2.6l64-36.9c2.4-1.4,4.9-2.1,7.4-2.1c1.1,0,2.2,0.1,3.3,0.4L278.4,5.2z"/>
	
		<radialGradient id="_Path__1_" cx="159.4881" cy="596.4444" r="268.5165" gradientTransform="matrix(1 0 0 1 0 -611.8694)" gradientUnits="userSpaceOnUse">
		<stop  offset="0" style="stop-color:#404041"/>
		<stop  offset="0.23" style="stop-color:#3B3B3C"/>
		<stop  offset="0.5" style="stop-color:#2E2E2F"/>
		<stop  offset="0.77" style="stop-color:#181818"/>
		<stop  offset="1" style="stop-color:#000000"/>
	</radialGradient>
	<path id="_Path_" class="st2" d="M331.8,96.4L331.8,96.4L331.8,96.4l-36.9-63.8l0,0l0,0c-1.4-2.4-3.4-3.9-6.5-4.8l-0.2-0.1
		l-0.2-0.1c-0.9-0.3-1.9-0.5-2.9-0.5c-1.6,0-3.2,0.6-4.8,1.5l-61,35.3H21.5c-7.2,0-13,5.8-13,13v33.3c0,7.3,5.9,13.2,13.2,13.2
		h215.7l11.9,20.5c1.6,2.6,3.7,4.1,6.5,4.9l0,0l0,0c1,0.3,2.1,0.4,3.1,0.4c1.7,0,3.3-0.4,5-1.3l63.9-37h0.1h0.1
		c2.5-1.4,4.1-3.4,4.8-6.3C333.6,101.5,333.3,98.9,331.8,96.4z"/>
	<path id="dots" class="st3" d="M287.5,92c-0.8-1.4-0.3-3.2,1.1-4s3.2-0.3,4,1.1s0.3,3.2-1.1,4l0,0C290.1,93.9,288.3,93.4,287.5,92z
		 M286.2,126.9c1.4-0.8,1.9-2.6,1.1-4s-2.6-1.9-4-1.1s-1.9,2.6-1.1,4C283,127.2,284.8,127.7,286.2,126.9L286.2,126.9L286.2,126.9z
		 M284.7,101.3c0.8,1.4,2.6,1.9,4,1.1s1.9-2.6,1.1-4s-2.6-1.9-4-1.1l0,0C284.4,98.1,283.9,99.9,284.7,101.3L284.7,101.3z
		 M283.3,136.2c1.4-0.8,1.9-2.6,1.1-4s-2.6-1.9-4-1.1c-1.4,0.8-1.9,2.6-1.1,4l0,0C280.1,136.5,281.9,137,283.3,136.2L283.3,136.2z
		 M280,130.5c1.4-0.8,1.9-2.6,1.1-4s-2.6-1.9-4-1.1s-1.9,2.6-1.1,4l0,0C276.8,130.8,278.6,131.3,280,130.5L280,130.5z M314.1,88.6
		c-1.4,0.8-1.9,2.6-1.1,4s2.6,1.9,4,1.1s1.9-2.6,1.1-4l0,0C317.3,88.3,315.5,87.8,314.1,88.6z M316.3,98.5c0.8,1.4,2.6,1.9,4,1.1
		s1.9-2.6,1.1-4s-2.6-1.9-4-1.1l0,0C316,95.3,315.5,97.1,316.3,98.5L316.3,98.5z M301.5,95.8c-1.4,0.8-1.9,2.6-1.1,4s2.6,1.9,4,1.1
		s1.9-2.6,1.1-4l0,0C304.7,95.5,302.9,95,301.5,95.8z M298.7,105.3c-1.4,0.8-1.9,2.6-1.1,4s2.6,1.9,4,1.1s1.9-2.6,1.1-4l0,0
		C301.8,105,300.1,104.5,298.7,105.3L298.7,105.3z M307.7,92.2c-1.4,0.8-1.9,2.6-1.1,4s2.6,1.9,4,1.1s1.9-2.6,1.1-4l0,0
		C310.9,91.9,309.1,91.4,307.7,92.2L307.7,92.2z M277,139.8c1.4-0.8,1.9-2.6,1.1-4s-2.6-1.9-4-1.1c-1.4,0.8-1.9,2.6-1.1,4l0,0
		C273.9,140.1,275.6,140.6,277,139.8z M311.1,98.1c-1.4,0.8-1.9,2.6-1.1,4s2.6,1.9,4,1.1s1.9-2.6,1.1-4l0,0
		C314.3,97.8,312.5,97.3,311.1,98.1L311.1,98.1z M267.5,137.7c1.4-0.8,1.9-2.6,1.1-4s-2.6-1.9-4-1.1c-1.4,0.8-1.9,2.6-1.1,4l0,0
		C264.3,138,266.1,138.5,267.5,137.7z M272.7,123.7c0.8,1.4,2.6,1.9,4,1.1s1.9-2.6,1.1-4s-2.6-1.9-4-1.1l0,0
		C272.3,120.5,271.9,122.3,272.7,123.7L272.7,123.7z M267.5,123.3c-1.4,0.8-1.9,2.6-1.1,4c0.8,1.4,2.6,1.9,4,1.1
		c1.4-0.8,1.9-2.6,1.1-4l0,0C270.7,122.9,268.9,122.5,267.5,123.3L267.5,123.3z M270.4,113.8c-1.4,0.8-1.9,2.6-1.1,4s2.6,1.9,4,1.1
		s1.9-2.6,1.1-4l0,0C273.5,113.5,271.8,113,270.4,113.8L270.4,113.8z M259.6,149.2c0.6-1.5-0.1-3.2-1.5-3.8s-3.2,0.1-3.8,1.5
		c-0.2,0.4-0.3,0.8-0.2,1.3c0.6,0.3,1.2,0.5,1.9,0.6l0,0l0,0c1,0.3,2.1,0.4,3.1,0.4C259.2,149.2,259.4,149.2,259.6,149.2
		L259.6,149.2z M284.8,81.5c1.4-0.8,1.9-2.6,1.1-4s-2.6-1.9-4-1.1s-1.9,2.6-1.1,4l0,0C281.6,81.9,283.4,82.3,284.8,81.5L284.8,81.5
		L284.8,81.5z M264.1,117.4c-1.4,0.8-1.9,2.6-1.1,4s2.6,1.9,4,1.1s1.9-2.6,1.1-4l0,0C267.3,117.1,265.5,116.6,264.1,117.4z
		 M255,130.5c-1.4,0.8-1.9,2.6-1.1,4c0.8,1.4,2.6,1.9,4,1.1c1.4-0.8,1.9-2.6,1.1-4l0,0C258.2,130.1,256.4,129.7,255,130.5z
		 M298,89.7c-1.4,0.8-1.9,2.6-1.1,4s2.6,1.9,4,1.1s1.9-2.6,1.1-4l0,0C301.2,89.4,299.4,88.9,298,89.7L298,89.7L298,89.7z
		 M270.8,143.4c1.4-0.8,1.9-2.6,1.1-4s-2.6-1.9-4-1.1c-1.4,0.8-1.9,2.6-1.1,4l0,0C267.6,143.7,269.4,144.2,270.8,143.4L270.8,143.4
		L270.8,143.4z M260.6,111.3c-1.4,0.8-1.9,2.6-1.1,4s2.6,1.9,4,1.1s1.9-2.6,1.1-4l0,0C263.8,111,262,110.5,260.6,111.3z
		 M264.2,131.9c1.4-0.8,1.9-2.6,1.1-4c-0.8-1.4-2.6-1.9-4-1.1s-1.9,2.6-1.1,4l0,0C261,132.3,262.8,132.7,264.2,131.9z M261.3,141.3
		c1.4-0.8,1.9-2.6,1.1-4s-2.6-1.9-4-1.1c-1.4,0.8-1.9,2.6-1.1,4l0,0C258.1,141.6,259.9,142.1,261.3,141.3z M273.7,134.1
		c1.4-0.8,1.9-2.6,1.1-4s-2.6-1.9-4-1.1c-1.4,0.8-1.9,2.6-1.1,4l0,0C270.6,134.4,272.3,134.9,273.7,134.1L273.7,134.1z M304.9,101.7
		c-1.4,0.8-1.9,2.6-1.1,4s2.6,1.9,4,1.1s1.9-2.6,1.1-4l0,0C308.1,101.4,306.3,100.9,304.9,101.7L304.9,101.7L304.9,101.7z
		 M329.8,101.7c1.4-0.8,1.9-2.6,1.1-4s-2.6-1.9-4-1.1s-1.9,2.6-1.1,4l0,0C326.6,102,328.4,102.5,329.8,101.7L329.8,101.7z M326.5,96
		c1.4-0.8,1.9-2.6,1.1-4s-2.6-1.9-4-1.1s-1.9,2.6-1.1,4l0,0C323.3,96.3,325.1,96.8,326.5,96L326.5,96z M285.3,82.3
		c-1.4,0.8-1.9,2.6-1.1,4s2.6,1.9,4,1.1s1.9-2.6,1.1-4l0,0C288.4,82,286.7,81.5,285.3,82.3L285.3,82.3L285.3,82.3z M291.9,93.8
		c-1.4,0.8-1.9,2.6-1.1,4s2.6,1.9,4,1.1s1.9-2.6,1.1-4l0,0C295,93.4,293.3,93,291.9,93.8L291.9,93.8z M323.6,105.3
		c1.4-0.8,1.9-2.6,1.1-4s-2.6-1.9-4-1.1s-1.9,2.6-1.1,4l0,0C320.4,105.6,322.2,106.1,323.6,105.3L323.6,105.3z M320.7,114.6
		c1.4-0.8,1.9-2.6,1.1-4s-2.6-1.9-4-1.1s-1.9,2.6-1.1,4l0,0C317.5,114.9,319.3,115.4,320.7,114.6L320.7,114.6z M278.9,120.1
		c0.8,1.4,2.6,1.9,4,1.1s1.9-2.6,1.1-4s-2.6-1.9-4-1.1l0,0C278.6,116.9,278.1,118.7,278.9,120.1z M328,107c-0.8-1.4-2.6-1.9-4-1.1
		s-1.9,2.6-1.1,4s2.6,1.9,4,1.1l0,0C328.3,110.2,328.8,108.4,328,107L328,107z M265.6,143c-0.8-1.4-2.6-1.9-4-1.1
		c-1.4,0.8-1.9,2.6-1.1,4s2.6,1.9,4,1.1l0,0C266,146.2,266.4,144.4,265.6,143z M332.9,104.5c0.2-0.7,0.3-1.4,0.4-2.1
		c-1.4-0.9-3.2-0.4-4,0.9c-0.9,1.4-0.4,3.2,0.9,4c0.4,0.2,0.8,0.4,1.3,0.4C332.1,106.8,332.6,105.7,332.9,104.5z M254.6,129.7
		c1.4-0.8,1.9-2.6,1.1-4c-0.8-1.4-2.6-1.9-4-1.1s-1.9,2.6-1.1,4l0,0C251.4,130,253.2,130.5,254.6,129.7z M317.4,108.9
		c1.4-0.8,1.9-2.6,1.1-4s-2.6-1.9-4-1.1s-1.9,2.6-1.1,4l0,0C314.2,109.2,316,109.7,317.4,108.9L317.4,108.9z M255,144.8
		c1.4-0.8,1.9-2.6,1.1-4c-0.8-1.4-2.6-1.9-4-1.1c-1.4,0.8-1.9,2.6-1.1,4l0,0C251.9,145.2,253.6,145.7,255,144.8z M294.1,103.5
		c0.8,1.4,2.6,1.9,4,1.1s1.9-2.6,1.1-4s-2.6-1.9-4-1.1l0,0C293.8,100.3,293.3,102.1,294.1,103.5L294.1,103.5z M295.7,129
		c1.4-0.8,1.9-2.6,1.1-4s-2.6-1.9-4-1.1s-1.9,2.6-1.1,4S294.3,129.8,295.7,129L295.7,129L295.7,129z M289.5,132.6
		c1.4-0.8,1.9-2.6,1.1-4c-0.8-1.4-2.6-1.9-4-1.1c-1.4,0.8-1.9,2.6-1.1,4S288.1,133.4,289.5,132.6L289.5,132.6z M292.4,123.3
		c1.4-0.8,1.9-2.6,1.1-4s-2.6-1.9-4-1.1s-1.9,2.6-1.1,4l0,0C289.3,123.6,291,124.1,292.4,123.3L292.4,123.3z M286.2,112.5
		c-1.4,0.8-1.9,2.6-1.1,4s2.6,1.9,4,1.1s1.9-2.6,1.1-4l0,0C289.4,112.2,287.6,111.7,286.2,112.5L286.2,112.5L286.2,112.5z
		 M289.1,103c-1.4,0.8-1.9,2.6-1.1,4s2.6,1.9,4,1.1s1.9-2.6,1.1-4l0,0C292.3,102.7,290.5,102.2,289.1,103L289.1,103L289.1,103z
		 M314.4,118.2c1.4-0.8,1.9-2.6,1.1-4s-2.6-1.9-4-1.1s-1.9,2.6-1.1,4l0,0C311.3,118.5,313,119,314.4,118.2L314.4,118.2z
		 M291.4,112.9c0.8,1.4,2.6,1.9,4,1.1s1.9-2.6,1.1-4s-2.6-1.9-4-1.1l0,0C291,109.7,290.6,111.5,291.4,112.9L291.4,112.9z
		 M311.1,112.5c1.4-0.8,1.9-2.6,1.1-4s-2.6-1.9-4-1.1s-1.9,2.6-1.1,4l0,0C308,112.8,309.7,113.3,311.1,112.5L311.1,112.5z
		 M308.2,121.8c1.4-0.8,1.9-2.6,1.1-4s-2.6-1.9-4-1.1s-1.9,2.6-1.1,4l0,0C305,122.1,306.8,122.6,308.2,121.8L308.2,121.8z
		 M304.9,116.1c1.4-0.8,1.9-2.6,1.1-4s-2.6-1.9-4-1.1s-1.9,2.6-1.1,4l0,0C301.7,116.4,303.5,116.9,304.9,116.1L304.9,116.1z
		 M298.7,119.7c1.4-0.8,1.9-2.6,1.1-4s-2.6-1.9-4-1.1s-1.9,2.6-1.1,4l0,0C295.5,120,297.3,120.5,298.7,119.7L298.7,119.7z
		 M302,125.4c1.4-0.8,1.9-2.6,1.1-4s-2.6-1.9-4-1.1s-1.9,2.6-1.1,4l0,0C298.8,125.7,300.6,126.2,302,125.4L302,125.4z"/>
	<path id="_100_8FM_Shadow" class="st4" d="M199.8,138.3c-0.8,0-1.5-1-1.5-2.3l0.1-4.3c0-1.3,1.1-2.3,2.3-2.2l8.6,0.1
		c1.2,0,2.3,0.4,2.3,0.8c0,0.4-1,0.8-2.3,0.8l-5.6-0.1c-1.2,0-2.3,0.5-2.3,1.1s1,1.2,2.2,1.2h0.9c1.2,0,2.3,0.4,2.3,0.8
		c0,0.4-1,0.8-2.3,0.8h-0.9c-1.2,0-2.3,0.7-2.3,1.7C201.3,137.5,200.6,138.3,199.8,138.3z M213.9,138.4c-0.7,0-1.2-1-1.2-2.3
		l0.1-4.3c0-1.2,0.6-2.3,1.3-2.3s2,0.7,2.9,1.5l2.6,2.4c1,0.8,2.4,0.8,3.4,0l2.7-2.3c0.9-0.8,2.3-1.5,2.9-1.5c0.7,0,1.2,1,1.2,2.3
		l-0.1,4.3c0,1.2-0.7,2.3-1.4,2.3c-0.8,0-1.4-1-1.4-2.3v-0.9c0-1.2,0.1-2.4,0.1-2.5v-0.2v-0.2c0-0.2-0.1-0.2-0.2,0l-0.1,0.1
		l-0.1,0.1c-0.1,0.1-1,0.9-1.9,1.7l-1.6,1.4c-0.9,0.8-1.8,1.5-2,1.5s-1-0.7-2-1.6l-1.5-1.4c-0.9-0.9-1.8-1.7-2-1.9l-0.1-0.1
		l-0.1-0.1c-0.1-0.2-0.2-0.1-0.1,0.1v0.2v0.2c0,0.2,0,1.3,0,2.6v0.9C215.1,137.4,214.6,138.4,213.9,138.4L213.9,138.4z M27.1,162.8
		l0.3-28.7l-7.5-0.1v-4.7l15-2.1l-0.3,35.7L27.1,162.8z M42.6,135.9c0-3.2,0.6-5.4,1.8-6.6c1.1-1.2,3.3-1.7,6.4-1.7l23.9,0.2
		c3.1,0,5.3,0.6,6.4,1.8s1.7,3.4,1.6,6.6L82.5,155c0,3.2-0.6,5.4-1.8,6.6s-3.3,1.7-6.4,1.7L50.4,163c-3.1,0-5.2-0.6-6.4-1.8
		c-1.1-1.2-1.7-3.4-1.6-6.6L42.6,135.9z M49.8,156.7l25.3,0.2l0.2-23L50,133.6L49.8,156.7z M90.4,136.4c0-3.2,0.6-5.4,1.8-6.6
		c1.1-1.2,3.3-1.7,6.4-1.7l23.9,0.2c3.1,0,5.3,0.6,6.4,1.8c1.1,1.2,1.7,3.4,1.6,6.6l-0.2,18.7c0,3.2-0.6,5.4-1.8,6.6
		c-1.1,1.2-3.3,1.7-6.4,1.7l-23.9-0.2c-3.1,0-5.2-0.6-6.4-1.8c-1.1-1.2-1.7-3.4-1.6-6.6L90.4,136.4z M97.7,157.1l25.3,0.2l0.2-23
		l-25.3-0.2L97.7,157.1z M143.3,153.3h1.2c0.6,0,1,0.2,1.3,0.5c0.2,0.3,0.4,1,0.3,2l-0.1,5.6c0,1.1-0.2,1.8-0.4,2.1
		c-0.3,0.3-1.1,0.5-2.5,0.4l-6.1-0.1c-0.6,0-1-0.2-1.3-0.5c-0.2-0.4-0.4-1-0.3-2l0.1-5.6c0-1,0.2-1.7,0.4-2s1.1-0.5,2.5-0.4H143.3z
		 M183.7,128.9c3.2,0,5.3,0.5,6.4,1.5c1.1,1,1.6,2.8,1.6,5.5v3.2c0,2.1-0.5,3.6-1.6,4.6c-1,1-2.8,1.7-5.3,2.2c2.6,0.3,4.5,1,5.7,2.2
		s1.8,2.8,1.8,4.9v3.7c0,2.9-0.7,4.9-1.9,5.9c-1.3,1.1-3.5,1.6-6.8,1.6L161,164c-3.2,0-5.4-0.6-6.7-1.7c-1.2-1.1-1.8-3.1-1.8-6v-3.7
		c0-2.1,0.7-3.8,1.9-4.9c1.2-1.1,3.1-1.8,5.7-2.1c-2.5-0.5-4.2-1.3-5.3-2.3s-1.5-2.6-1.5-4.6v-3.2c0-2.7,0.6-4.5,1.7-5.4
		c1.1-1,3.3-1.4,6.5-1.4L183.7,128.9z M181.5,148.9l-18.1-0.2c-1.3,0-2.2,0.2-2.7,0.6c-0.4,0.4-0.7,1.3-0.7,2.6v2.6
		c0,1.3,0.2,2.2,0.6,2.6c0.4,0.4,1.3,0.6,2.7,0.6l18.1,0.2c1.4,0,2.3-0.2,2.7-0.6c0.4-0.4,0.7-1.3,0.7-2.6v-2.6
		c0-1.3-0.2-2.2-0.6-2.6C183.8,149.1,182.9,148.9,181.5,148.9L181.5,148.9z M180.9,134.9l-16.5-0.2c-1.4,0-2.3,0.2-2.8,0.6
		s-0.7,1.3-0.7,2.6v1.8c0,1.3,0.2,2.1,0.7,2.6s1.4,0.7,2.7,0.7l16.5,0.2c1.3,0,2.2-0.2,2.7-0.6c0.5-0.4,0.7-1.3,0.7-2.6v-1.8
		c0-1.3-0.2-2.2-0.7-2.6C183.1,135.1,182.2,134.9,180.9,134.9L180.9,134.9z"/>
	<path id="_100_8FM" class="st5" d="M199.4,130.8c0-1.3,1.1-2.3,2.3-2.2l8.6,0.1c1.2,0,2.3,0.4,2.3,0.8c0,0.4-1,0.8-2.3,0.8
		l-5.6-0.1c-1.2,0-2.3,0.5-2.3,1.1s1,1.2,2.2,1.2h0.9c1.2,0,2.3,0.4,2.3,0.8c0,0.4-1,0.8-2.3,0.8h-0.9c-1.2,0-2.3,0.7-2.3,1.7
		c0,0.9-0.7,1.7-1.5,1.7s-1.5-1-1.5-2.3L199.4,130.8z M216.1,135.3v-0.9c0-1.2,0-2.4,0-2.6v-0.2v-0.2c0-0.2,0-0.2,0.1-0.1l0.1,0.1
		l0.1,0.1c0.2,0.2,1.1,1,2,1.9l1.5,1.4c0.9,0.9,1.8,1.5,2,1.6c0.2,0,1.1-0.7,2-1.5l1.6-1.4c0.9-0.8,1.8-1.6,1.9-1.7l0.1-0.1l0.1-0.1
		c0.2-0.2,0.3-0.2,0.2,0v0.2v0.2c0,0.1,0,1.3-0.1,2.5v0.9c0,1.2,0.6,2.3,1.4,2.3s1.4-1,1.4-2.3l0.1-4.3c0-1.2-0.5-2.3-1.2-2.3
		s-2,0.7-2.9,1.5l-2.7,2.3c-1,0.8-2.4,0.8-3.4,0l-2.6-2.4c-0.9-0.8-2.2-1.5-2.9-1.5s-1.2,1-1.3,2.3l-0.1,4.3c0,1.2,0.5,2.3,1.2,2.3
		S216,136.5,216.1,135.3L216.1,135.3z M28,161.4l0.3-28.7l-7.5-0.1v-4.7l15-2.1l-0.3,35.7L28,161.4z M43.5,134.6
		c0-3.2,0.6-5.4,1.8-6.6c1.1-1.2,3.3-1.7,6.4-1.7l23.9,0.2c3.1,0,5.3,0.6,6.4,1.8c1.1,1.2,1.7,3.4,1.6,6.6l-0.2,18.7
		c0,3.2-0.6,5.4-1.8,6.6c-1.1,1.2-3.3,1.7-6.4,1.7l-23.9-0.2c-3.1,0-5.2-0.6-6.4-1.8c-1.1-1.2-1.7-3.4-1.6-6.6L43.5,134.6z
		 M50.7,155.3l25.3,0.2l0.2-23l-25.3-0.2L50.7,155.3z M91.4,135c0-3.2,0.6-5.4,1.8-6.6c1.1-1.2,3.3-1.7,6.4-1.7l23.9,0.2
		c3.1,0,5.3,0.6,6.4,1.8c1.1,1.2,1.7,3.4,1.6,6.6l-0.2,18.7c0,3.2-0.6,5.4-1.8,6.6s-3.3,1.7-6.4,1.7l-23.9-0.2
		c-3.1,0-5.2-0.6-6.4-1.8c-1.1-1.2-1.7-3.4-1.6-6.6L91.4,135z M98.6,155.7l25.3,0.2l0.2-23l-25.3-0.2L98.6,155.7z M144.2,151.9h1.2
		c0.6,0,1,0.2,1.3,0.5c0.2,0.3,0.4,1,0.3,2v5.6c0,1.1-0.2,1.8-0.4,2.1s-1.1,0.5-2.5,0.4l-6.1-0.1c-0.6,0-1-0.2-1.3-0.5
		c-0.2-0.4-0.4-1-0.3-2l0.1-5.6c0-1,0.2-1.7,0.4-2c0.3-0.3,1.1-0.5,2.5-0.4H144.2z M184.6,127.5c3.2,0,5.3,0.5,6.4,1.5
		c1.1,1,1.6,2.8,1.6,5.5v3.2c0,2.1-0.5,3.6-1.6,4.6c-1,1-2.8,1.7-5.3,2.2c2.6,0.3,4.5,1,5.7,2.2c1.2,1.1,1.8,2.8,1.8,4.9v3.7
		c0,2.9-0.7,4.9-1.9,5.9c-1.3,1.1-3.5,1.6-6.8,1.6l-22.6-0.2c-3.2,0-5.4-0.6-6.7-1.7c-1.2-1.1-1.8-3.1-1.8-6v-3.7
		c0-2.1,0.7-3.8,1.9-4.9c1.2-1.1,3.1-1.8,5.7-2.1c-2.5-0.5-4.2-1.3-5.3-2.3c-1-1-1.5-2.6-1.5-4.6v-3.2c0-2.7,0.6-4.5,1.7-5.4
		c1.1-1,3.3-1.4,6.5-1.4L184.6,127.5z M182.4,147.5l-18.1-0.2c-1.3,0-2.2,0.2-2.7,0.6c-0.4,0.4-0.7,1.3-0.7,2.6v2.6
		c0,1.3,0.2,2.2,0.6,2.6c0.4,0.4,1.3,0.6,2.7,0.6l18.1,0.2c1.4,0,2.3-0.2,2.7-0.6s0.7-1.3,0.7-2.6v-2.6c0-1.3-0.2-2.2-0.6-2.6
		C184.7,147.8,183.8,147.6,182.4,147.5L182.4,147.5z M181.8,133.5l-16.5-0.2c-1.4,0-2.3,0.2-2.8,0.6c-0.5,0.4-0.7,1.3-0.7,2.6v1.8
		c0,1.3,0.2,2.1,0.7,2.6s1.4,0.7,2.7,0.7l16.5,0.2c1.3,0,2.2-0.2,2.7-0.6c0.5-0.4,0.7-1.3,0.7-2.6v-1.8c0-1.3-0.2-2.2-0.7-2.6
		C184.1,133.8,183.2,133.5,181.8,133.5L181.8,133.5z"/>
	<path id="_100_8FM_Dust" class="st6" d="M216.5,130.1c0.1-0.2,0.3-0.4,0.5-0.7c0.3,0.2,0.7,0.5,1,0.7l2,1.8l-0.1,0.3
		C218.7,131.6,217.6,130.9,216.5,130.1z M201.4,128.6c-1.1,0.1-2,1.1-2,2.2l-0.1,4.3c0,0.1,0,0.3,0,0.4c0.2,0.2,0.5,0.3,0.7,0.5
		C200.5,133.5,200.9,131,201.4,128.6z M230.7,131.9l-2.9,2.2c0,0.1,0,0.2,0,0.4v0.9c0,0.1,0,0.2,0,0.3c0.9-0.2,1.9-0.4,2.8-0.6
		L230.7,131.9z M210.3,128.6h-0.9c-0.2,0.6,0,1.2,0.5,1.5h0.4c1.2,0,2.3-0.3,2.3-0.8C212.5,129,211.5,128.7,210.3,128.6L210.3,128.6
		z M191.9,141.2c0.5-0.9,0.7-2.1,0.7-3.4v-0.4C191.7,138.6,191.1,139.8,191.9,141.2z M188.3,130.1l1.3,1.1c0.9,0.8,1.9,1.4,2.9,2
		c-0.1-2-0.7-3.3-1.6-4.2c-0.5-0.4-1.1-0.7-1.7-0.9c-0.1,0.1-0.2,0.3-0.3,0.5C188.7,129.1,188.5,129.6,188.3,130.1L188.3,130.1z
		 M177.8,132c0.2,0.5,0.3,1,0.5,1.5h0.5C178.5,133,178.2,132.4,177.8,132L177.8,132z M138.3,156.1l1.4-4.2h-0.4
		c-0.6,0-1.1,0-1.6,0.1c0,0.1,0,0.3,0,0.5C137.7,153.7,137.8,155,138.3,156.1z M107,127.1c-0.1,0-0.2,0-0.3,0h-6.1
		c-0.5,0-0.9,0.1-1.1,0.3c-0.1,0.2-0.2,0.4-0.2,0.6c0,0.1,0,0.2,0,0.4v2.7c0.7-1,2-1.7,1.9-3.1l0.4,0.1V128c0.9,1.1,1.8,2.1,2.6,3.2
		c0.7-1,1.4-2,2.1-3C106.4,127.8,106.7,127.5,107,127.1l-0.8,4.8c0.7,0.7,1.3,0.6,1.8,0.3v-3.9C108,127.6,107.7,127.2,107,127.1z
		 M189.8,152.2l0.1-0.3c-0.8,0-1.5,0.2-2.1,1.1c-0.3,1.7,0.7,2.6,1.8,3.6c1.2-0.4,2.6-0.5,3.7-1.2v-3.1h-3.5V152.2z M96,154.8
		c1.8-2,0.9-3.6-0.6-5.2C95.6,151.3,95.8,153,96,154.8L96,154.8z M176.1,146.5c0.1-0.6,0.4-1.1,0.8-1.5c0.7-0.8,1.6-1.4,1.5-2.6
		c-1.5-0.6-2.7,0.6-4,0.9c-0.3,1.5-1.2,2.4-2.7,2.8l0,0l-0.3,1.3h4.2C175.7,147.1,175.9,146.8,176.1,146.5L176.1,146.5z
		 M160.6,151.9l-0.4-0.4c-0.1,0.3-0.1,0.7-0.2,1c-1.3-0.3-2.5-1.5-4-0.9c-0.1,1.4,1.2,2.1,1.9,3V153h3.1v-0.8L160.6,151.9z
		 M189.8,157.1l-3-1.7c-0.1,0.4-0.1,0.7-0.2,1.1l0,0c-0.5-0.1-1-0.4-1.4-0.7l-0.1,0.1c-0.4,0.4-1.3,0.6-2.7,0.6h-0.3
		c0,0.1,0.1,0.2,0.1,0.3c0.8,1.2,1,2.8,2.6,3.4l2.2,1.7l0.7-2.3l-0.4-1l3.5-1.2C190.4,157.4,190.1,157.2,189.8,157.1L189.8,157.1z
		 M163.1,133.7c0.5-0.2,1.2-0.3,2.2-0.3h2.6h0.1l1.2-1c0.3,0.2,0.6,0.3,0.9,0.4c-0.1-0.3-0.3-0.6-0.4-0.9l1.8-1.6
		c0.2-0.4,0.2-0.9,0-1.3c-0.2-0.2-0.4-0.4-0.6-0.6c0.2-0.2,0.3-0.4,0.3-0.7c-0.4-0.1-0.8-0.2-1.2-0.3l-7.5-0.1l2.1,1.8
		C164,130.8,164.3,132.5,163.1,133.7z M156.5,136.2c0,0.6,0.8,1.1,1.2,1.7c0,0.1,0.1,0.1,0.1,0.2v-3.2h4.2c0.1-0.2,0.2-0.4,0.3-0.6
		c-0.4,0.2-0.8,0.4-1.3,0.5c-0.1-0.2-0.1-0.3-0.2-0.5c-0.1-1.2,0.3-2.3,0.6-3.5l0.3-0.7c0.1-1,0.2-1.9,0.4-2.9c-1,0-2,0.1-3,0.2
		c1.1,1.4,1.7,2.9,0.1,4.6c-0.2-1.5-0.4-3-0.5-4.6c-0.5,0.1-0.9,0.2-1.4,0.4C156.6,131.1,156.3,134,156.5,136.2L156.5,136.2z
		 M169.8,144.3c0,0.1-0.1,0.1-0.1,0.1c0,0.5,0,1.1,0.1,1.6l1.7-1l1.2-1.2l-0.4-2.2h-1.2C170.9,142.6,170.4,143.6,169.8,144.3
		L169.8,144.3z M49.2,138.5c1.8-2,0.9-3.6-0.6-5.2L49.2,138.5z M81.8,132l-0.3,1.5l1.9,1c0,0.3,0.1,0.7,0.2,1v-0.6
		c0-0.7,0-1.3-0.1-1.9C83.1,132.5,82.5,132.1,81.8,132z M29.2,160c0.1,0.3,0.1,0.6,0.2,0.9l1.9-1.5v-6.6l-0.3,0.3l-2.9,1.6v0.8
		l2.5,0.9L29.2,160z M45.5,154.3c1-0.8,1.1-2.4,1.3-3.8c1.3-4.3,1.7-8.8,1.1-13.2l-2.1,0.5c-0.8,4.7-1.6,9.4-2.4,14.1v1.3
		c0,0.6,0,1.1,0,1.7C44.2,155.3,44.8,154.8,45.5,154.3L45.5,154.3z M29.7,127.5c-0.6-0.3-1.3-0.4-2.2-0.4h-0.3l-6.4,0.9v4.7l0,0
		c2.7-0.7,5.2-2,7.4-3.8L29.7,127.5z M29.9,150.6c-0.5-0.8-1.1-1-1.8-1v4.6h0.1C29.2,153.2,30.3,152.2,29.9,150.6L29.9,150.6z
		 M52.9,127h-2.3c-0.5,0-1,0-1.5,0.1c-0.4,0.1-0.8,0.3-1.2,0.5c-0.4,0.3-0.6,0.6-0.9,1c-0.3,0.5-0.5,1-0.7,1.6l-0.3,0.9
		c2.2-0.7,4.3-1.9,6.1-3.4L52.9,127z M53.1,158.8l0.1,0.5h0.5l3.2-2.6c0.7-0.3,1.2-0.8,1.5-1.4h-4L53.1,158.8z M121.8,157.1
		c0-0.1,0-0.2,0-0.2c0-0.1-0.1-0.1-0.1-0.2c-0.1-0.2-0.2-0.4-0.3-0.7H121C121.2,156.4,121.5,156.8,121.8,157.1z M97.5,157.4
		c-0.8,0.1-1.8-0.4-2.5,0.4c-0.1,0.4-0.2,0.9,0,1.3c0.2,0.4,0.5,0.8,0.9,1c1.1,0.2,2.2-0.6,3.3-0.1c3.1-0.3,2.9-0.8,3.6-2.1
		c0.2-0.7,0.5-1.5,0.7-2.2h-3.3C99.8,156.5,99.1,157.1,97.5,157.4L97.5,157.4z M121.6,133c0.4-0.7,0.7-1.6,1.2-2.2
		c0.1-1.3,1.5-2,2-3c-1.3,0.2-2.6,0.6-3.9,1.1c-0.2,0.1-0.4,0.2-0.6,0.3c-0.7,0.3-1.4,0.7-2,1.2c-0.8,0.5-1.5,1.1-2.1,1.8
		c-0.1,0.2-0.3,0.3-0.4,0.5c0.1,0.1,0.1,0.2,0.2,0.4L121.6,133z M122.8,161.5c0.1-0.4,0.1-0.9,0-1.3c-0.7-0.9-1.6-0.4-2.5-0.4
		c-2.9-0.7-3.1-2.1-3.4-3.8H112c0.2,0.7,0.4,1.4,0.6,2c0.6,1.6,1.4,3.1,2.4,4.4h1c0-0.1,0-0.3,0-0.4c0.3,0.2,0.8,0.3,1.5,0.4h1.3
		c0.4-0.1,0.8-0.1,1.2,0h2C122.4,162.1,122.6,161.8,122.8,161.5L122.8,161.5z M58.6,130.2c-0.2-0.6-0.4-1.1-0.7-1.7
		c-0.2-0.4-0.5-0.7-0.9-1c-0.3-0.2-0.6-0.3-0.9-0.4c0,0.2,0,0.5,0.1,0.7l0.3,0.7c0.3,1.1,0.7,2.3,0.6,3.5c0,0.1-0.1,0.2-0.1,0.4h2.5
		L58.6,130.2z M76.8,141.1c-0.2,1-0.3,2.1-0.5,3.1c1,3.2,2.1,6.4,3.1,9.6c0.5-1.1,0.6-2.4,0.6-3.7c0.1-1.6-0.3-2.3-0.5-3.1
		C78.9,144,78,141.8,76.8,141.1L76.8,141.1z"/>
	<g id="Πανόραμα">
	</g>
	<path id="Πανόραμα-2" class="st5" d="M50.1,113c0,0.4-0.1,0.7-0.2,0.9c-0.2,0.2-0.5,0.2-1,0.2h-6.3c-0.8,0-1.2-0.4-1.2-1.1
		V81.1H25.6V113c0,0.4-0.1,0.7-0.2,0.9s-0.5,0.2-1,0.2H18c-0.8,0-1.2-0.4-1.2-1.1V77.4c0-1.4,0.3-2.4,0.8-3c0.6-0.6,1.5-1,2.9-1h26
		c1.4,0,2.4,0.3,2.9,1c0.5,0.6,0.8,1.6,0.8,3L50.1,113z M77.9,105.7H64.6l-2.3,7.4c-0.1,0.3-0.2,0.6-0.5,0.8
		c-0.2,0.2-0.6,0.3-1.1,0.3h-6.8c-0.4,0-0.7-0.1-0.8-0.3c-0.1-0.3-0.1-0.6,0-0.8l12.1-36.4c0.2-0.6,0.4-1.1,0.7-1.6
		c0.2-0.4,0.5-0.7,0.9-1c0.4-0.2,0.7-0.4,1.2-0.5s1-0.2,1.5-0.1H73c0.6,0,1.1,0,1.7,0.1c0.4,0,0.9,0.2,1.2,0.4
		c0.4,0.3,0.7,0.6,0.9,1c0.3,0.5,0.5,1.1,0.7,1.7l12,36.3c0.1,0.2,0.1,0.5,0,0.8s-0.3,0.4-0.8,0.4h-6.9c-0.4,0-0.7,0-1.1-0.1
		c-0.3-0.1-0.5-0.4-0.6-0.8L77.9,105.7z M66.7,98.5h9.1l-2.2-7.4l-2.2-8.3h-0.3l-2.2,8.3L66.7,98.5z M176.7,112.9
		c0,0.5-0.1,0.9-0.3,1s-0.6,0.2-1.1,0.2h-6.1c-0.5,0-0.8-0.1-1-0.3c-0.2-0.2-0.3-0.5-0.3-1v-36c0-1.1,0.2-1.9,0.7-2.6
		c0.5-0.6,1.4-1,2.8-1h14.2c2.1,0,4,0.3,5.7,1c1.6,0.6,3.1,1.5,4.3,2.6s2.1,2.5,2.7,4c0.6,1.6,0.9,3.4,0.9,5.1
		c0,1.3-0.2,2.5-0.5,3.7c-0.4,1.6-1,3.1-2,4.4c-1,1.4-2.5,2.6-4.5,3.6s-4.6,1.5-7.8,1.5h-7.7L176.7,112.9z M190,86.7
		c0-0.6-0.1-1.2-0.2-1.8c-0.2-0.7-0.5-1.3-0.9-1.8c-0.5-0.6-1.1-1.1-1.8-1.4c-0.8-0.4-1.7-0.6-2.9-0.6h-7.6v11h7.6
		c2,0,3.4-0.5,4.4-1.6C189.6,89.6,190,88.3,190,86.7L190,86.7z M219.9,105.7h-13.3l-2.3,7.4c-0.1,0.3-0.2,0.6-0.5,0.8
		c-0.2,0.2-0.6,0.3-1.1,0.3h-6.8c-0.4,0-0.7-0.1-0.8-0.3c-0.1-0.3-0.1-0.6,0-0.8l12.1-36.4c0.2-0.6,0.4-1.1,0.7-1.6
		c0.2-0.4,0.5-0.7,0.9-1c0.4-0.2,0.7-0.4,1.2-0.5s1-0.2,1.5-0.1h3.5c0.6,0,1.1,0,1.7,0.1c0.4,0,0.9,0.2,1.2,0.4
		c0.4,0.3,0.7,0.6,0.9,1c0.3,0.5,0.5,1.1,0.7,1.7l12.1,36.4c0.1,0.2,0.1,0.5,0,0.8s-0.3,0.4-0.8,0.4h-6.9c-0.4,0-0.7,0-1.1-0.1
		c-0.3-0.1-0.5-0.4-0.6-0.8L219.9,105.7z M208.6,98.5h9.1l-2.2-7.4l-2.2-8.3H213l-2.2,8.3L208.6,98.5z M268.7,90.7h-0.3l-2.4,5.4
		l-4.8,10.7c-0.4,1-0.9,1.7-1.3,2s-1.1,0.5-2,0.5h-3.2c-1,0-1.6-0.2-2-0.5s-0.8-1-1.2-2l-3.6-7.6l-3.6-7.8H244V113
		c0,0.5-0.1,0.9-0.3,1s-0.5,0.2-1,0.2h-5.9c-0.3,0-0.7,0-1-0.2c-0.2-0.1-0.3-0.4-0.3-1V77.5c0-1.5,0.3-2.5,0.8-3.1
		c0.6-0.6,1.5-0.9,2.9-0.9h3.4c1.1,0,1.9,0.2,2.4,0.6s1,1.1,1.5,2.1l6.3,14.2l3.6,8.3h0.2l4-9.1l5.9-13.3c0.5-1,1-1.8,1.5-2.2
		s1.5-0.6,2.7-0.6h2.9c1.2,0,2.2,0.3,2.8,0.8s0.9,1.5,0.9,3V113c0,0.5-0.1,0.9-0.3,1c-0.2,0.1-0.5,0.2-1.1,0.2H270
		c-0.3,0-0.7,0-1-0.2c-0.2-0.1-0.3-0.4-0.3-1V90.7z M305.6,105.7h-13.3L290,113c-0.1,0.3-0.2,0.6-0.5,0.8c-0.2,0.2-0.6,0.3-1.1,0.3
		h-6.8c-0.4,0-0.7-0.1-0.8-0.3c-0.1-0.3-0.1-0.6,0-0.8l12.1-36.4c0.2-0.6,0.4-1.1,0.7-1.6c0.2-0.4,0.5-0.7,0.9-1
		c0.4-0.2,0.7-0.4,1.2-0.5s1-0.2,1.5-0.1h3.5c0.6,0,1.1,0,1.7,0.1c0.4,0,0.9,0.2,1.2,0.4c0.4,0.3,0.7,0.6,0.9,1
		c0.3,0.5,0.5,1.1,0.7,1.7l12.1,36.4c0.1,0.2,0.1,0.5,0,0.8s-0.3,0.4-0.8,0.4h-6.9c-0.4,0-0.7,0-1.1-0.1c-0.3-0.1-0.5-0.4-0.6-0.8
		L305.6,105.7z M294.4,98.5h9.1l-2.2-7.4l-2.2-8.3h-0.3l-2.2,8.3L294.4,98.5z M164.4,93.8c0,3.2-0.3,6-1,8.5s-1.8,4.6-3.2,6.4
		c-1.5,1.8-3.3,3.1-5.5,4s-4.8,1.4-7.8,1.4c-5.8,0-10.1-1.7-12.9-5.2s-4.2-8.4-4.2-14.9c0-3.1,0.4-5.9,1.2-8.5
		c0.8-2.5,1.9-4.6,3.4-6.4c1.5-1.7,3.3-3.1,5.4-4c2.1-0.9,4.5-1.4,7.2-1.4c2.9,0,5.4,0.5,7.6,1.4c2.1,0.9,4,2.2,5.4,4
		c1.4,1.7,2.5,3.8,3.2,6.3C164.1,87.9,164.5,90.7,164.4,93.8L164.4,93.8z M155.5,94c0-1.6-0.1-3.2-0.4-4.8c-0.2-1.4-0.6-2.8-1.3-4
		c-0.6-1.1-1.5-2.1-2.6-2.8c-1.1-0.7-2.5-1-4.2-1c-1.4,0-2.7,0.3-3.7,1c-1.1,0.7-2,1.6-2.7,2.7c-0.7,1.2-1.3,2.5-1.6,3.9
		c-0.3,1.6-0.5,3.2-0.5,4.8c0,1.8,0.1,3.5,0.4,5.3c0.2,1.4,0.7,2.8,1.4,4c0.6,1.1,1.5,2,2.6,2.6s2.4,0.9,4.1,0.9c1.6,0,2.9-0.3,4-1
		s2-1.6,2.6-2.7c0.7-1.2,1.1-2.6,1.4-4C155.4,97.1,155.6,95.5,155.5,94L155.5,94z M101.1,88.9V113c0,0.5-0.1,0.8-0.3,1
		c-0.2,0.2-0.5,0.2-1.1,0.2h-6.1c-0.5,0-0.8-0.1-1-0.3c-0.2-0.2-0.3-0.5-0.3-1V77.5c0-1.5,0.3-2.6,0.8-3.2s1.5-0.9,3-0.9h2.4
		c0.5,0,1,0,1.5,0.1c0.4,0.1,0.7,0.2,1.1,0.4c0.3,0.2,0.6,0.5,0.9,0.8s0.6,0.8,0.9,1.3l9.9,15.1l5,7.9h0.3V74.6c0-0.5,0.1-0.8,0.3-1
		c0.2-0.2,0.5-0.3,1.1-0.3h6.1c0.9,0,1.3,0.4,1.3,1.2v35.6c0,1.2-0.3,2.2-0.8,2.9c-0.5,0.7-1.5,1.1-3,1.1h-2.4c-0.5,0-1,0-1.5-0.1
		c-0.4,0-0.7-0.2-1.1-0.4c-0.3-0.2-0.6-0.5-0.9-0.8c-0.3-0.4-0.6-0.9-0.9-1.3L107,97.6l-5.6-8.7H101.1z"/>
	<path id="Πανόραμα_Dust" class="st6" d="M21.3,73.4c-1.5,5.1-3.1,10.2-4.6,15.2V77.4c0-1.4,0.3-2.4,0.8-3
		c0.6-0.6,1.5-1,2.9-1H21.3z M189.1,98.9c0.2,0,0.5-0.1,0.7-0.2c0-0.1-0.1-0.2-0.1-0.3L189.1,98.9z M215.5,98.5H211l2.2,1.9
		L215.5,98.5z M135.6,81.7l1.1-2.7l-1.5-0.5c-0.1,0.2-0.3,0.3-0.4,0.5c0.2,0.5,0.4,0.9,0.6,1.4C135.5,80.7,135.6,81.2,135.6,81.7z
		 M126.9,110.2v-0.3c-0.3,0.9-0.5,1.8-0.5,2.8C126.7,112,126.9,111.2,126.9,110.2z M30.8,77.6c-0.1,0.4-0.2,0.9,0,1.3s0.5,0.8,0.9,1
		c1.1,0.2,2.2-0.6,3.3-0.1c4.4-0.4,8.5-1.7,12-4.6l1.6-1.4c-0.6-0.3-1.3-0.4-2.2-0.4h-6.3c-2,1.7-4.1,3.2-6.8,3.8
		C32.5,77.3,31.5,76.8,30.8,77.6z M20.3,88.2c1.4-0.9,1.6-2.5,2.1-4C24,80.7,25,77.1,25,73.4h-3.7c-1.5,5.1-3.1,10.2-4.6,15.2
		C18,89.5,19.1,88.9,20.3,88.2L20.3,88.2z M21,97l-2.8,2.4c1.2,1.7,3.1,1.8,4.9,2.3c1.1-0.9,2.1-1.9,1.8-3.6
		C23.9,96.6,22.3,97.3,21,97L21,97z M21.6,114.2h2.7c0.5,0,0.9-0.1,1-0.2c0.2-0.2,0.2-0.4,0.2-0.9v-0.3c-0.7,0.2-1.3,0.5-2,0.9
		C23.1,114,22.2,113.9,21.6,114.2L21.6,114.2z M50,100.5L50,100.5c-0.1-0.4-0.2-0.7-0.2-1.1l-3,1.7c-0.3,0.1-0.6,0.2-0.8,0.4
		l3.5,1.2C49.6,102,49.8,101.3,50,100.5L50,100.5z M50,100.5c-0.2,0.8-0.4,1.5-0.6,2.3l-1.4,3.5c0.1,0.3,0.1,0.6,0.2,0.9l1.9-1.5
		L50,100.5L50,100.5L50,100.5z M50,100.5L50,100.5L50,100.5l0.1-1.3l-0.3,0.3C49.9,99.8,50,100.2,50,100.5L50,100.5z M43.5,80.9
		c0.2,1.7,0.4,3.5,0.6,5.2C45.9,84.1,45,82.4,43.5,80.9L43.5,80.9z M131.9,104.6l-0.5-0.4c0.6,1.7,1.5,3.2,2.6,4.6
		c0.2,0.3,0.5,0.6,0.8,0.9c0.1-0.5,0.1-1,0.1-1.5C133.9,107.6,134.3,106.6,131.9,104.6L131.9,104.6z M125.8,73.4L125.8,73.4
		c-0.1,0-0.2,0-0.3,0h-1c0.2,0.3,0.4,0.7,0.5,1.1C125.3,74.1,125.6,73.8,125.8,73.4z M122.5,94.6c-0.1,0.4-0.3,0.8-0.5,1.2
		c0,0.1,0,0.1,0.1,0.2l0.1-0.1c0.6,0,1.1,0,1.7,0.1c0-0.8-0.1-1.6-0.3-2.4C122.9,94,122.5,94.3,122.5,94.6z M122.9,77.5
		c0.7-1,1.4-2,2.1-3c-0.2-0.4-0.3-0.7-0.5-1.1h-3.8l-0.3,0.8C121.3,75.3,122.1,76.3,122.9,77.5z M122,96c-3.9,2.8-0.5,6.6-5.6,7.8
		c-0.8,0.1-1.8-0.4-2.5,0.4c-0.1,0.4-0.2,0.9,0,1.3s0.5,0.8,0.9,1c1.1,0.2,2.2-0.6,3.3-0.1c3.1-0.3,2.9-0.8,3.6-2.1
		c0.8-2.6,1.8-5.3,2.1-8.3l0,0C123.2,96,122.7,95.9,122,96L122,96z M95.7,87.4c-0.2,1-0.3,2.1-0.5,3.1c1,3.2,2.1,6.4,3.1,9.6
		c0.5-1.1,0.6-2.4,0.6-3.7c0.1-1.6-0.3-2.3-0.5-3.1C97.8,90.3,96.9,88.2,95.7,87.4z M95.4,114c0.1,0.1,0.1,0.2,0.2,0.3h4.1
		c0.5,0,0.9-0.1,1.1-0.2c0.2-0.2,0.3-0.5,0.3-1V112c-0.9-0.3-1.9-0.1-2.8-0.3L95.4,114z M100.6,78.4l-0.3,1.5l1.9,1
		c0,1,0.4,1.6,1.5,1.6l0.9-0.7C103.1,80.9,102.7,78.6,100.6,78.4L100.6,78.4z M114.2,95.9c0.2,1.7,0.4,3.5,0.6,5.2
		C116.6,99.1,115.7,97.5,114.2,95.9L114.2,95.9z M75.2,74.9c0.3,1.1,0.7,2.3,0.6,3.5c-0.1,0.4-0.3,0.8-0.5,1.2c0.3,1,0.5,2,0.8,3
		c0.7,0.4,1.4,0.5,2,0.2c0.4-0.2,0.7-0.5,1-0.8c0.1-0.1,0.1-0.2,0.2-0.2l-1.7-5.2c-0.2-0.6-0.4-1.2-0.7-1.7c-0.2-0.4-0.5-0.7-0.9-1
		c-0.3-0.2-0.6-0.3-0.9-0.4c0,0.2,0,0.5,0.1,0.7V74.9z M71.7,73.3h-2.3c-0.5,0-1,0-1.5,0.1c-0.4,0.1-0.8,0.3-1.2,0.5
		c-0.4,0.3-0.6,0.6-0.9,1c-0.3,0.5-0.5,1-0.7,1.6l-0.3,0.9c2.2-0.7,4.3-1.9,6.1-3.4L71.7,73.3z M66.7,83.6l-2.1,0.5
		c-1,5.6-1.9,11.2-2.9,16.8c1,1,1.8,0.4,2.6-0.3c1-0.8,1.1-2.4,1.3-3.8C67,92.6,67.3,88.1,66.7,83.6L66.7,83.6z M44.9,95.7l-2.8,2.4
		c1.2,1.7,3.1,1.8,4.9,2.3c1.1-0.9,2.1-1.9,1.8-3.6C47.9,95.4,46.3,96.1,44.9,95.7L44.9,95.7z M73.8,98.5h-0.5l-2.5,1.4
		c-0.3,0.1-0.6,0.2-0.8,0.4l3.5,1.2c0.2-0.8,0.4-1.5,0.6-2.3l0,0L73.8,98.5z M53.1,113.3L53.1,113.3c-0.1,0.1-0.1,0.3,0,0.4
		c0.1,0.2,0.4,0.3,0.8,0.3h1.5c0.4-0.1,0.8-0.3,1.2-0.4L53.1,113.3z M78.4,99.7c0.2-1.7,2.4-2.2,2.2-4.1c-1.5-0.6-2.7,0.6-4,0.9
		c-0.1,0.7-0.4,1.3-0.9,1.8l0.1,0.2h-0.3c-0.4,0.4-1,0.6-1.5,0.8l0,0c-0.2,0.8-0.4,1.5-0.6,2.3l-1.4,3.5l0.1,0.5h0.5l3.2-2.6
		C77.4,102.5,77.6,100.8,78.4,99.7z M74,99.3L74,99.3c0.6-0.1,1.1-0.4,1.5-0.8h-1.7L74,99.3z M76,96l-0.7,0.8l0.5,1.6
		c0.5-0.5,0.8-1.1,0.9-1.8c-0.1-0.3-0.1-0.7-0.2-1L76,96z M67.5,79.6l0.6,5.2C69.9,82.9,69,81.2,67.5,79.6L67.5,79.6z M214.3,80.9
		l1.4-4.8c-1.1-0.9-2.1-1.8-3.1-2.7h-1.3c-0.5,0-1,0-1.5,0.1c-0.4,0.1-0.8,0.3-1.2,0.5c-0.4,0.3-0.6,0.6-0.9,1
		c-0.3,0.5-0.5,1-0.6,1.5l1.3,1.1C210.2,79,212.2,80.1,214.3,80.9L214.3,80.9z M218.7,81.9c0.6,0.1,1.2,0.2,1.9,0.2
		c0.2-0.1,0.4-0.2,0.7-0.2l-1.1-3.2c-0.2-0.1-0.4-0.2-0.6-0.3C219.3,79.7,219,80.8,218.7,81.9z M238.8,91l-3.3-11
		c-0.1,0-0.2,0.1-0.3,0.1v10.4l0,0C236.3,91.2,237.5,91.9,238.8,91L238.8,91z M237.3,101.7l-2.1-1.8v3.4
		C236.1,103,236.8,102.4,237.3,101.7L237.3,101.7z M205.5,102.8L205.5,102.8l0.6,2.3l3.5-1.2c-0.2-0.2-0.5-0.3-0.8-0.4l-3-1.7
		C205.6,102.1,205.5,102.5,205.5,102.8z M205.5,102.8L205.5,102.8c-1.4-0.4-2.3-1.3-2.7-2.8c-1.1-0.3-2-1.1-3.1-1.1l-0.5,1.5
		c0.6,0.9,1.7,1.5,1.8,2.7c0.8,1.2,1,2.8,2.6,3.4l2.2,1.7l0.7-2.3l-0.4-1C205.8,104.3,205.6,103.6,205.5,102.8L205.5,102.8z
		 M212,83.2c-1.5,1.6-2.4,3.2-0.6,5.2C211.6,86.6,211.8,84.9,212,83.2L212,83.2z M129.9,91.6c-0.1,0.8-0.1,1.6-0.1,2.4
		c0,0.3,0,0.6,0,0.9l0.3,0.2C130.1,93.9,130,92.7,129.9,91.6z M133.4,98.3l0.1-0.2c-0.2-0.4-0.4-0.8-0.5-1.2c0-0.3-0.4-0.6-0.9-0.9
		s-1.2-0.6-1.9-0.9l-0.3-0.2c0,1.3,0.1,2.6,0.3,4C131.1,98.4,132.2,98.2,133.4,98.3L133.4,98.3z M134.9,108.2
		c0.4,0.2,1.2,0.4,2.5,0.5c1.1-0.5,2.2,0.3,3.3,0.1c0.4-0.2,0.7-0.6,0.9-1c0.1-0.4,0.1-0.9,0-1.3c-0.7-0.9-1.6-0.4-2.5-0.4
		c-5.1-1.2-1.7-5-5.6-7.8l-0.1-0.1c-1.2,0-2.3,0.1-3.2,0.6c0.2,1.8,0.7,3.6,1.3,5.3l0.5,0.4C134.3,106.6,133.9,107.6,134.9,108.2
		L134.9,108.2z M158.7,91.4l1.2-1.1l-0.1-0.6c-1.2,0.8-2.1,2.9-2.8,6c-0.3,0.8-0.6,1.4-0.5,3.1c0.1,1.3,0.1,2.6,0.6,3.7
		c1-3.2,2.1-6.4,3.1-9.6v-0.1C159.6,92.4,159.1,91.9,158.7,91.4z M153.1,84c0.1-0.2,0.1-0.5,0.1-0.8l2-1l-0.3-1.5
		c-1.4,0.2-2.1,1.3-2.8,2.3C152.5,83.2,152.8,83.6,153.1,84L153.1,84z M121.5,113.7c0,0.2,0,0.3,0,0.5h1.5c0.4,0,0.8,0,1.2-0.1
		C123.4,113.7,122.6,113.3,121.5,113.7z M139.7,101.1c0,0.7,0.2,1.5,1,2.3c0-0.1,0-0.2,0-0.2c0-0.1-0.1-0.1-0.1-0.2
		C140.2,102.4,139.9,101.7,139.7,101.1z M175.3,82.6c0,0.6,0.8,1.1,1.2,1.7c0,0.1,0.1,0.1,0.1,0.2v-3.2h1c0.6-0.3,1.3,0,2,0
		c0.1,0,0.2,0,0.2-0.1c-0.1-0.2-0.1-0.3-0.2-0.5c-0.1-1.2,0.3-2.3,0.6-3.5l0.3-0.7c0.1-1.1,0.2-2.1,0.5-3.1h-3.5
		c1.4,1.6,2.3,3.2,0.5,5.1c-0.2-1.7-0.4-3.4-0.6-5.1h-1.1C175.6,76.8,175.2,80.1,175.3,82.6L175.3,82.6z M185.3,73.4h-4.2l2.4,2.1
		C183.9,74.6,184.5,73.9,185.3,73.4L185.3,73.4z M188.6,78.1l-0.6,0.5c0.3,0.2,0.6,0.3,0.9,0.4C188.9,78.8,188.7,78.5,188.6,78.1
		L188.6,78.1z M198.2,80.9c-0.4-0.9-0.9-1.8-1.5-2.6c0.3,0.8,0.5,1.7,0.8,2.5C197.7,80.8,197.9,80.8,198.2,80.9L198.2,80.9z
		 M189.2,96.7l0.8-1.9l-1.2-0.4C188.9,95.1,189,95.9,189.2,96.7z M191.5,90.2l-0.6-3.8l-0.9-0.2c0,0.2,0,0.3,0,0.5
		c0,1.5-0.5,2.9-1.4,3.9c0,0.1-0.1,0.1-0.1,0.1c0,0.5,0,1.1,0.1,1.6l1.7-1L191.5,90.2z M192.4,96.3l-2.8,2.2c0,0.1,0.1,0.2,0.1,0.3
		c0.9-0.2,1.7-0.5,2.5-0.9c0.2-0.1,0.4-0.2,0.6-0.3l-0.2-1.3C192.5,96.3,192.5,96.3,192.4,96.3L192.4,96.3z M213.3,100.4l-2.2-1.9
		h-2.4l0.1-0.3c-0.8,0-1.5,0.2-2.1,1.1c-0.3,1.7,0.7,2.6,1.8,3.6c1.7-0.5,3.5-0.6,4.7-2.1l-0.1-0.1L213.3,100.4z M174.8,97.9
		c-0.1,1.4,1.2,2.1,1.9,3v-1.6h2.3c-0.1-0.2-0.1-0.4-0.2-0.5C177.5,98.5,176.4,97.3,174.8,97.9L174.8,97.9z M179.1,97.8
		c-0.1,0.3-0.1,0.7-0.2,1c0,0.2,0.1,0.4,0.2,0.5h1.6l-1.1-1.1L179.1,97.8z M187.8,82.2c0.1,0,0.1,0.1,0.2,0.1c0-0.1,0-0.2,0-0.3
		C187.9,82,187.9,82.1,187.8,82.2L187.8,82.2z M246.2,77.3c0.3,1.1,0.7,2.3,0.6,3.5c-0.1,0.4-0.3,0.8-0.5,1.2l0.8,3
		c0.7,0.4,1.4,0.5,2,0.2c0.4-0.2,0.7-0.5,0.9-0.8l-3.7-8.3c-0.1-0.3-0.3-0.6-0.4-0.9c0.1,0.5,0.1,0.9,0.1,1.4
		C246,76.9,246.1,77.1,246.2,77.3z M241.9,76.5l2.8-2.4l0,0c-0.5-0.4-1.3-0.6-2.4-0.6h-3.4c-1.4,0-2.3,0.3-2.9,0.9
		c-0.6,0.6-0.8,1.7-0.8,3.1v2.6c0.1,0,0.2-0.1,0.3-0.1C237.8,79.2,240,78,241.9,76.5L241.9,76.5z M214.3,80.9l-0.8,2.5l1.6,6.1h0.1
		c1.4-0.9,1.6-2.5,2.1-4c0.5-1.1,1-2.3,1.4-3.5c0.4-1.1,0.6-2.2,0.9-3.4c0.1-0.4,0.1-0.7,0.2-1.1l-0.3-0.9c-0.2-0.6-0.4-1.2-0.7-1.7
		c-0.2-0.4-0.5-0.7-0.9-1c-0.4-0.2-0.8-0.4-1.2-0.4l-0.8,2.6L214.3,80.9z M215.5,98.5l-2.2,1.9l-0.2,0.2l0.1,0.1
		c1.2,1.6,3.1,1.7,4.8,2.2c1.1-0.9,2.1-1.9,1.8-3.6c-0.5-0.9-1.3-1-2.1-1.1l0.1,0.2L215.5,98.5z M222.3,113.7
		c0.1,0.1,0.2,0.3,0.4,0.3c0.3,0.1,0.7,0.2,1.1,0.1l0,0c0-0.1,0-0.1,0-0.2C223.4,113.8,222.9,113.7,222.3,113.7z M240.9,102.8l2.9,1
		v-2.6l-2.1,1.1C241.4,102.4,241.2,102.6,240.9,102.8L240.9,102.8z M251.7,98c-1.5-0.6-2.7,0.6-4,0.9l0,0l0.1,0.3l1.5,3.1
		c0.1-0.1,0.1-0.2,0.2-0.3C249.6,100.4,251.8,99.9,251.7,98L251.7,98z M243.2,108.4l0.6-0.5v-2.5l-0.8,2.1
		C243.1,107.9,243.1,108.1,243.2,108.4L243.2,108.4z M247.4,98l-0.2,0.2l0.4,0.9l0,0C247.6,98.6,247.5,98.3,247.4,98z M239.1,87.3
		c1.8-2,0.9-3.6-0.6-5.2C238.7,83.8,238.9,85.5,239.1,87.3L239.1,87.3z M311.4,105c-0.8,0.1-1.8-0.4-2.5,0.4c-0.1,0.4-0.2,0.9,0,1.3
		s0.5,0.8,0.9,1c1.1,0.2,2.2-0.6,3.3-0.1c1.2-0.1,1.8-0.2,2.3-0.4l-1.3-3.8C313.6,104.1,312.8,104.6,311.4,105L311.4,105z
		 M290.6,88.6c-0.2,1-0.3,2.1-0.5,3.1l3.1,9.6c0.5-1.1,0.6-2.4,0.6-3.7c0.1-1.6-0.3-2.3-0.5-3.1C292.7,91.5,291.9,89.4,290.6,88.6z
		 M299.1,82.8l0.1,0.5l0.3-0.2c-1.5-0.9-1.9-3.2-4-3.4c-0.1,0.5-0.2,1-0.3,1.5l1.9,1c0,0.9,0.4,1.5,1.3,1.6l0.3-1H299.1z
		 M309.2,97.1c0.2,1.7,0.4,3.5,0.6,5.2C311.6,100.4,310.7,98.7,309.2,97.1L309.2,97.1z M270.1,76.1c0.3,1.1,0.7,2.3,0.6,3.5
		c-0.1,0.4-0.3,0.8-0.5,1.2l0.8,3c0.7,0.4,1.4,0.5,2,0.2c0.4-0.2,0.7-0.5,1-0.8c0.4-0.6,1.1-1.1,1.2-1.7c0.1-2.2-0.2-5-0.8-8
		c-0.3,0-0.6,0-0.9,0h-2.9c-0.3,0-0.6,0-0.9,0c0.1,0.7,0.2,1.3,0.2,2L270.1,76.1z M259.3,101.8c1-0.8,1.1-2.4,1.3-3.8
		c1.2-3.8,1.6-7.9,1.2-11.8l-1.5,3.3l-2.5,5.7l-1.2,6.9C257.7,103,258.5,102.5,259.3,101.8L259.3,101.8z M239.9,96.9l-2.8,2.4
		c1.2,1.7,3.1,1.8,4.9,2.3c1-0.8,1.8-1.7,1.8-3l0,0c0-0.2,0-0.4-0.1-0.6C242.8,96.6,241.2,97.3,239.9,96.9L239.9,96.9z M273.4,100.9
		c0.2-1.7,2.4-2.2,2.2-4.1c-1.5-0.6-2.7,0.6-4,0.9c-0.3,1.5-1.2,2.4-2.7,2.8l0,0c-0.1,0.3-0.2,0.7-0.3,1v4.5l2.1-1.7
		C272.4,103.7,272.5,102,273.4,100.9L273.4,100.9z M263.6,82.3l-0.8,1.7l0.2,2C264.3,84.7,264.2,83.5,263.6,82.3z M120,74.2l0.4,0.1
		v-0.1l0.3-0.8h-1.3c-0.5,0-0.9,0.1-1.1,0.3c-0.1,0.2-0.2,0.4-0.2,0.6C118.7,74,119.4,74,120,74.2z M92.3,91.4v0.8
		c0.1-0.1,0.1-0.2,0.2-0.3C92.4,91.8,92.3,91.6,92.3,91.4z M120,74.2c-0.6-0.2-1.3-0.2-1.9,0c0,0.1,0,0.2,0,0.4v2.7
		C118.7,76.3,120.1,75.7,120,74.2z M190.2,74c-1-0.3-2.1-0.5-3.1-0.6c1,0.2,2,0.6,2.8,1.2C190,74.5,190.1,74.3,190.2,74z
		 M183.6,75.5c-1,2.3,0,4.7-3.7,5.6c-0.1,0-0.1,0-0.2,0.1c-0.7,0.1-1.4-0.2-2,0h6.5c0.4,0,0.7,0,1.1,0.1c0.4-0.6,1-1.1,1.5-1.6
		l1.2-1l0.6-0.5l1.8-1.6c0.2-0.4,0.2-0.9,0-1.3c-0.2-0.2-0.4-0.4-0.6-0.6c-0.8-0.6-1.7-1-2.7-1.2c-0.5,0-1-0.1-1.5-0.1h-0.3
		C184.5,73.9,183.9,74.6,183.6,75.5L183.6,75.5z M159.9,90.3l-1.2,1.1c0.4,0.6,1,1.1,1.6,1.4c1,0.5,2.2,0.7,3.3,1
		c0.3-0.3,0.6-0.5,0.9-0.8c0-1.2-0.1-2.5-0.3-3.7c-0.8-0.2-1.8-0.1-2.6-0.3L159.9,90.3z M192.4,96.3c0,0,0.1,0,0.1-0.1
		c1.4-0.7,1.6-2.2,2.4-3.4c0.1-0.6,0.4-1.1,0.8-1.5c0.7-0.8,1.6-1.4,1.5-2.6c-1.5-0.6-2.7,0.6-4,0.9c-0.3,1.5-1.2,2.4-2.7,2.8l0,0
		c-0.2,0.8-0.4,1.5-0.6,2.3l-0.8,1.9l-0.7,1.6c0.1,0.2,0.1,0.5,0.2,0.7c0.1,0,0.2,0,0.4-0.1l0.6-0.5L192.4,96.3z M125.8,73.4
		L125.8,73.4l-0.8,4.8c0.7,0.7,1.3,0.6,1.8,0.3v-3.9C126.9,73.9,126.5,73.5,125.8,73.4z M137.3,76.7L137.3,76.7L137.3,76.7
		c-0.8,0.5-1.5,1.1-2.1,1.7l1.5,0.5C136.9,78.2,137.1,77.4,137.3,76.7z M137.3,76.7L137.3,76.7c-0.2,0.8-0.4,1.5-0.6,2.3l-1.1,2.7
		l-0.3,0.8c0,0.2,0.1,0.4,0.1,0.6l0.1,0.3l3.7-2.9c1.6-0.6,1.7-2.3,2.6-3.4c0.1-1.3,1.5-2,2-3c-1.3,0.2-2.6,0.6-3.9,1.1
		c-0.2,0.1-0.4,0.2-0.6,0.3C138.7,76.1,138,76.5,137.3,76.7z M137.3,76.7c0.8-0.2,1.5-0.6,2-1.2C138.6,75.8,137.9,76.2,137.3,76.7
		L137.3,76.7L137.3,76.7z"/>
</g>
</svg>
