<?xml version="1.0" encoding="utf-8"?>
<!-- Generator: Adobe Illustrator 27.2.0, SVG Export Plug-In . SVG Version: 6.00 Build 0)  -->
<svg version="1.1" id="Layer_1" xmlns="http://www.w3.org/2000/svg" xmlns:xlink="http://www.w3.org/1999/xlink" x="0px" y="0px"
	 viewBox="0 0 800 800" style="enable-background:new 0 0 800 800;" xml:space="preserve">
<style type="text/css">
	.st0{display:none;}
	.st1{display:inline;fill:#2B2D2D;}
	.st2{display:inline;}
	.st3{fill:#FFFFFF;}
	.st4{fill:#E20613;}
	.st5{fill:#2B2D2D;}
	.st6{fill:#F37021;}
	.st7{fill:#007DC5;}
	.st8{fill:#007DC5;stroke:#007DC5;stroke-width:0.4456;}
	.st9{fill:#007DC5;stroke:#007DC5;stroke-width:0.4469;}
	.st10{fill:#F37032;}
	.st11{display:inline;fill:#FFFFFF;}
	.st12{fill:#525A63;}
	.st13{fill:#A3A7AC;}
	.st14{fill:#FF0000;}
</style>
<g id="Layer_1_00000026876443021438575640000017077477562530175399_" class="st0">
	<rect x="0.4" class="st1" width="799.6" height="800"/>
	<g class="st2">
		<g>
			<g>
				<g>
					<g>
						<g>
							<path id="SVGID_1_" class="st3" d="M573.7,314.1v139.8c0,17.5,14.3,31.8,31.8,31.8h21.8v-21.3h-21.8
								c-5.9,0-10.5-4.8-10.5-10.5v-81.1h33.2v-21.1H595v-37.5C595,314.1,573.7,314.1,573.7,314.1z"/>
						</g>
					</g>
				</g>
			</g>
			<g>
				<g>
					<g>
						<g>
							<path id="SVGID_3_" class="st3" d="M473.3,351.7c-17.5,0-31.8,14.3-31.8,31.8v13.8c0,17.5,14.3,31.8,31.8,31.8h61.8
								c5.9,0,10.5,4.8,10.5,10.5v14.5c0,5.9-4.8,10.5-10.5,10.5h-88.3v21.1h88.3c17.5,0,31.8-14.3,31.8-31.8v-14.5
								c0-17.5-14.3-31.8-31.8-31.8h-61.8c-5.9,0-10.5-4.8-10.5-10.5v-13.8c0-5.9,4.8-10.5,10.5-10.5h88.3v-21.1H473.3z"/>
						</g>
					</g>
				</g>
			</g>
			<g>
				<g>
					<g>
						<g>
							<path id="SVGID_5_" class="st3" d="M341.7,351.7c-17.5,0-31.8,14.3-31.8,31.8v70.6c0,17.5,14.3,31.8,31.8,31.8h89.4v-21.4
								h-89.4c-5.9,0-10.5-4.8-10.5-10.5v-70.6c0-5.9,4.8-10.5,10.5-10.5h61.8c5.9,0,10.5,4.8,10.5,10.5v26.8l-57,18.9v22.3
								l78.1-25.9v-42.2c0-17.5-14.3-31.8-31.8-31.8C403.6,351.7,341.7,351.7,341.7,351.7z"/>
						</g>
					</g>
				</g>
			</g>
			<g>
				<g>
					<g>
						<g>
							<path id="SVGID_7_" class="st3" d="M178.4,314.1v27c0,17.5,14.3,31.8,31.8,31.8h60.1c5.9,0,10.5,4.8,10.5,10.5V454
								c0,5.9-4.8,10.5-10.5,10.5h-3.6h-17.3h-45.8c-5.9,0-10.5-4.8-10.5-10.5v-50.8h-21.3v50.6c0,17.5,14.3,31.8,31.8,31.8h66.5
								c17.5,0,31.8-14.3,31.8-31.8v-70.6c0-17.5-14.3-31.8-31.8-31.8H210c-5.9,0-10.5-4.8-10.5-10.5v-26.8L178.4,314.1L178.4,314.1
								z"/>
						</g>
					</g>
				</g>
			</g>
			<g>
				<path class="st3" d="M151.2,333.8c-0.2,0.2-0.2,0.4-0.2,0.4S151,334,151.2,333.8C151.2,333.6,151.2,333.6,151.2,333.8
					C151.2,333.6,151.2,333.6,151.2,333.8"/>
				<polyline class="st3" points="151.2,333.6 151.2,333.6 151.2,333.6 151.2,333.6 				"/>
			</g>
		</g>
		<path class="st4" d="M250.8,411.7c-6.1-10.4-16.3-15.9-24.3-13.9c-0.9-1.1-1.8-2.1-2.7-3.2c-2.5-2.7-5.5-5.5-9.1-8
			c-3.8-2.5-8.2-4.6-13.2-5.2c-5-0.7-10.2,0.2-14.7,1.8c-2.3,0.7-4.5,1.8-6.6,2.9s-4.3,2.3-6.1,3.2c-0.9,0.4-1.6,0.7-2.1,0.9
			c-0.2-1.4,0.2-3.8,0.5-5.7c0.7-4.5,1.8-9.1,0.5-13.9c-0.5-2.3-2.1-4.6-4.1-5.7c-2.1-1.3-4.1-1.4-5.7-2.5c-3.4-1.6-6.3-4.1-8-7
			c-4.1-6.1-4.3-12.2-4.3-16.1c0-2,0.2-3.6,0.4-4.6c0-0.4,0-0.5,0-0.7s0-0.2,0-0.4l0,0c0,0,0,0.2,0,0.4c0,0.2,0,0.4-0.2,0.7
			c-0.2,1.1-0.5,2.7-0.5,4.6c-0.2,2-0.2,4.5,0.2,7.3c0.4,2.9,1.3,6.1,3,9.1c1.8,3,4.6,5.9,8.2,7.9c1.8,1.1,3.9,1.6,5.4,2.7
			s2.3,2.7,2.7,4.5c0.5,3.8-0.5,8-1.8,12.3c-0.5,2.3-1.4,4.3-1.3,7.5c0,0.9,0.4,2,1.4,3c1.1,1.1,2.5,1.3,3.4,1.3
			c1.8,0,3-0.5,4.3-0.9c2.5-0.9,4.3-1.8,6.4-2.7c2-0.7,4.1-1.4,6.1-2c4.1-1.1,8-1.3,11.6-0.4c7.1,1.6,12.3,7,16.1,12
			c0.7,1.1,1.4,2.1,2.1,3c-3.6,6.3-3,16.1,2.1,24.8c7,11.8,19.3,17.3,27.5,12.7C256.5,436.9,257.7,423.5,250.8,411.7"/>
	</g>
</g>
<rect x="0.4" class="st5" width="799.6" height="800"/>
<g id="Layer_2_00000107559358919293226910000017806157729241217711_" class="st0">
	<g class="st2">
		<g>
			<rect class="st6" width="800" height="800"/>
		</g>
	</g>
	<g class="st2">
		<rect x="121.4" y="394.2" class="st3" width="557.1" height="128.8"/>
		<path class="st7" d="M164,428.4h16.1c6.5,0,14.6,0.8,20.7,6.6c4.9,4.7,8.7,13.3,8.7,24.3c0,9.9-3.2,19.8-7.8,24.7
			c-4,4.4-10.6,7-22.6,7H164V428.4z M130,517.3h61.6c9.3,0,19-0.8,29.4-7.4c11.2-6.8,15.6-16.3,18-23.2c3-8.4,4.4-17.5,4.4-26.6
			c0-17.3-4.7-27.5-6.6-31.9c-13.5-28.1-41.6-27.5-51.7-27.5H130V517.3z"/>
		<path class="st8" d="M275.4,450.4c1.1-3.2,3.8-11.6,15-11.6c2.8,0,7.2,0.6,10.8,4c2.8,2.8,3.4,4.7,4.2,7.4h-30V450.4z
			 M333.1,462.7c-0.2-8-0.6-18.6-8.7-28.7c-9.1-11.2-22.6-13.3-34.6-13.3c-8.7,0-26.4,0.4-36.5,15.8c-3,4.7-5.9,12-5.9,21.5
			c0,16.5,8.2,27.5,19.4,33.1c7.2,3.4,15,4.7,22.8,4.7c5.1,0,19.2-0.8,29.4-7.4c8.2-5.3,11-12,12.5-15.2l-27.4-1.9
			c-1.5,1.9-2.7,3.2-5.5,4.6c-1.9,0.9-4.7,1.9-7.8,1.9c-4.9,0-14.2-2.7-16.3-15.2L333.1,462.7L333.1,462.7z"/>
		<path class="st8" d="M366.6,450.4c1.1-3.2,3.8-11.6,15-11.6c2.8,0,7.2,0.6,10.8,4c2.8,2.8,3.4,4.7,4.2,7.4h-30V450.4z
			 M424.3,462.7c-0.2-8-0.6-18.6-8.7-28.7c-9.1-11.2-22.6-13.3-34.4-13.3c-8.7,0-26.4,0.4-36.5,15.8c-3,4.7-5.9,12-5.9,21.5
			c0,16.5,8.2,27.5,19.4,33.1c7.2,3.4,15,4.7,22.8,4.7c5.1,0,19.2-0.8,29.4-7.4c8.2-5.3,11-12,12.5-15.2l-27.4-1.5
			c-1.5,1.9-2.7,3.2-5.5,4.6c-1.9,0.9-4.7,1.9-7.8,1.9c-4.9,0-14.2-2.7-16.3-15.2L424.3,462.7L424.3,462.7z"/>
		<path class="st7" d="M465.5,400.6h34.8v80c0,7.6-0.2,18.2-7.2,26.8c-7.4,9.1-17.7,9.9-27.5,9.9h-19.9v-27.5h7.8
			c7.4,0,12.2-0.6,12.2-12v-77.2L465.5,400.6L465.5,400.6z"/>
		<path class="st8" d="M560.9,461.2c-0.8,3.8-1.7,8.2-7,11.8c-3.8,2.7-8.2,4-12.5,4c-8,0-9.3-4.9-9.3-7c0-6.3,6.8-7,10.6-7.4
			C547.4,462,556.6,461.4,560.9,461.2z M533.4,445.1c0.6-1.9,1.3-4,6.1-5.3c2.8-0.8,7-1.1,8.4-1.1c8.2,0,10.4,2.7,11.4,4.2
			c1.3,2.1,1.3,3.8,1.3,5.7c-12.7,0.2-31.3,0.6-41.2,4.2c-5.1,1.9-8.5,4.9-10.4,8c-2.1,3.4-3,8.2-3,12.3c0,6.6,2.3,12.3,6.8,16.5
			c5.3,4.7,12.3,6.3,19,6.3c12.3,0,22.4-5.3,29.3-8.7c0.2,3.2,0.4,4,0.9,6.8h27.4c-2.5-2.8-3.2-4.9-3.2-10.4v-37
			c0-4.7,0-15.2-9.5-20.9c-6.5-3.8-17.7-5.1-29.4-5.1c-13.9,0-24.1,2.5-29.6,6.5c-7,5.1-8.4,13.5-8.9,18
			C508.1,445.1,533.4,445.1,533.4,445.1z"/>
		<path class="st9" d="M588.7,422.8h28.5l5.3,18.4c3.6,12.5,4.2,15.6,5.7,27.7c1.5-9.9,1.7-12.7,4.6-22.8l6.6-23.6h28.9l-27.9,72.2
			c-2.8,7.2-5.7,13.9-12.2,18c-4.7,3-8.2,3.4-17.1,3.4h-13.7v-19.8h12.2c2.7,0,5.3-0.8,5.3-4c0-1.5-0.8-3-1.1-4.4L588.7,422.8z"/>
		<g>
			<path class="st3" d="M222,335.4h-17.9l8.9-32.1L222,335.4z M163.8,371.9h30.4l4.2-15.4h29.4l4.2,15.4h30l-33.4-95h-31.5
				L163.8,371.9z"/>
			<path class="st3" d="M290.8,303.5h9.3V322h-9.3v23.4c0,6.3,2.7,6.3,9.3,6.3v20.1h-16.5c-8.4,0-12.9-0.9-16.3-4.9
				c-2.5-4-2.7-7.6-2.5-11.2l0.2-4.9l0.4-28.9h-8v-18.4h8.4l0.2-23.9h24.9v23.9H290.8z"/>
			<path class="st3" d="M331,276.9v32.7c3.8-4.2,9.9-11.2,23.9-11.2c10.4,0,19.6,4.9,23.7,11c4.4,6.6,4.4,16,4.4,23v39.7h-25.6
				v-34.8c0-3.6,0-7.6-1.1-10.6c-1.3-3.2-4.9-7.2-11.2-7.2c-2.7,0-5.5,0.4-7.8,2.1c-6.1,4-6.5,11.6-6.5,18v32.5h-25.6v-95H331V276.9
				z"/>
			<path class="st3" d="M416,328.4c1.1-3.2,3.8-11.6,14.8-11.6c2.7,0,7,0.6,10.6,4c2.7,2.8,3.2,4.9,4.2,7.6H416L416,328.4z
				 M472.6,340.8c-0.2-8-0.6-18.8-8.7-28.9c-8.9-11.4-22.2-13.3-33.8-13.3c-8.7,0-26,0.4-35.9,16c-3,4.7-5.9,12.2-5.9,21.5
				c0,16.7,8,27.7,19.2,33.2c7,3.4,14.8,4.7,22.4,4.7c4.9,0,18.8-0.8,28.9-7.6c8-5.3,10.8-12.2,12.2-15.4l-27-1.7
				c-1.5,1.9-2.7,3.2-5.3,4.6c-1.9,0.9-4.6,1.9-7.6,1.9c-4.9,0-14.1-2.7-16.1-15.2L472.6,340.8L472.6,340.8z"/>
			<path class="st3" d="M503.5,309.6c6.3-5.7,13.3-10.4,25.1-10.4c7.8,0,12.9,1.5,17.9,4.9c8.9,6.5,9.5,16,9.5,30.2v37.6h-25.8
				v-32.5c0-4.7-0.2-7.2-0.6-9.1c-1.9-8.2-7.6-10.6-12.5-10.6c-3.2,0-6.3,0.9-8.7,3.4c-4.7,4.7-4.7,10.8-4.7,17.3v31.7h-26v-71.4h26
				L503.5,309.6L503.5,309.6z"/>
			<path class="st3" d="M586.4,348.7c0.2,1.1,0.4,2.5,1.7,4c2.3,3,7.4,4.4,11.8,4.4c5.1,0,10.3-1.7,10.3-6.3c0-1.1-0.4-2.1-0.8-2.5
				c-1.3-2.1-5.5-2.7-13.5-4.2c-4.6-0.8-9.1-1.7-13.5-3c-11.2-3.2-19-6.6-19-20.1c0-22.8,28.3-23,36.1-23c16.7,0,33.1,4.9,36.7,23.7
				l-25.6,1.3c-1.1-7.2-10.4-7.6-12.7-7.6c-4.9,0-9.1,1.7-9.1,5.7c0,2.3,1.5,3.4,4.9,4.6c3.2,1.1,19.4,3.4,23.2,4
				c8.7,1.7,19.6,4,19.6,18.4c0,7-2.7,11.6-5.5,14.6c-4.7,5.7-12.9,11.4-31.3,11.4c-12.5,0-23.7-2.7-29.8-6.6
				c-6.6-4.4-8.5-10.1-9.1-17.5L586.4,348.7z"/>
		</g>
		<g>
			<path class="st3" d="M141.8,503.2v-8.4c0-2.1,0.6-2.7,0.9-3c0.6-0.4,1.1-0.4,1.5-0.4c2.3,0,2.5,2.1,2.5,3.2v8.7L141.8,503.2
				L141.8,503.2z M158.9,508.5V503h-8.4v-6.3l8.4-5.9v-6.5l-8.5,6.6c-0.2-0.9-0.4-2.3-1.3-3.6c-1.1-1.5-3-2.1-4.6-2.1
				c-1.1,0-2.7,0.4-4,1.3c-1.9,1.9-2.3,4-2.3,6.5v15L158.9,508.5L158.9,508.5z"/>
			<path class="st3" d="M152.1,469.6c0.8,0,1.1,0,1.9,0.6c1.3,0.9,2.3,3,2.3,5.1c0,0.6,0,3.4-1.9,3.4c-1.5,0-1.7-1.5-1.9-1.9
				C152.1,475.5,152.1,473,152.1,469.6z M150.2,464.6c-3,0-6.6,0-6.6,9.3c0,1.5,0,4.9,1.3,7.2c1.1,1.9,2.5,2.1,3.4,2.3v-5.1
				c-1.1-0.4-1.3-2.5-1.3-4.2c0-4.4,1.3-4.4,2.7-4.4v4.7c0,4.9,0.2,9.7,4.7,9.7c2.3,0,4-1.7,4.6-3.8c0.4-1.1,0.4-2.5,0.4-3.6
				c0-3.4-0.9-5.3-1.9-7c0.4,0,0.9,0,1.5-0.4v-5.5c-0.8,0.6-0.9,0.8-1.9,0.8C157.2,464.6,150.2,464.6,150.2,464.6z"/>
			<path class="st3" d="M147.1,452.3c0-1.1,0.2-2.5,0.8-3.4c0.4-0.4,1.1-1.7,3.6-1.7c3.6,0,4.7,2.7,4.7,4.7c0,3.8-3,4.6-4.7,4.6
				C149.2,456.5,147.1,455,147.1,452.3z M145.6,447.2c-0.4,0.6-0.9,1.3-1.3,2.7c-0.4,1.1-0.6,2.3-0.6,3.6c0,4.9,3.2,8.4,8,8.4
				c4.7,0,7.8-3.6,7.8-8.4c0-2.3-0.8-4.2-1.5-5.1c-0.2-0.4-0.6-0.8-0.8-0.9h1.7v-4.9h-20.7v4.9C138.2,447.2,145.6,447.2,145.6,447.2
				z"/>
			<path class="st3" d="M139,433.1h3.2v4.9H139V433.1z M144.1,433.1h14.8v4.9h-14.8V433.1z"/>
			<path class="st3" d="M146.9,420c-0.2-3.6,1.7-5.7,4.4-5.7c2.1,0,4.6,1.1,4.6,5.3c0,5.1-3.6,5.5-4.4,5.5
				C149.2,425.1,147.1,423.6,146.9,420z M143.5,419.4c0,6.3,3,10.8,8.2,10.8c4.9,0,8-4.4,8-10.6c0-5.9-2.8-10.6-8.2-10.6
				C147.1,409,143.5,412.6,143.5,419.4z"/>
		</g>
	</g>
</g>
<g id="Layer_6" class="st0">
	<g class="st2">
		<g>
			<rect class="st6" width="800" height="800"/>
		</g>
	</g>
	<g class="st2">
		<g>
			<rect x="99.2" y="170.4" class="st6" width="601.5" height="459.3"/>
			<rect x="99.2" y="331.8" class="st3" width="601.5" height="135.7"/>
			<path class="st7" d="M137.1,365.9h18c7.2,0,16.3,0.8,23.1,7.4c5.5,5.3,9.7,14.8,9.7,27.1c0,11-3.6,22-8.7,27.5
				c-4.4,4.9-11.9,7.8-25.2,7.8h-16.9L137.1,365.9L137.1,365.9z M99.2,465h68.6c10.4,0,21.2-0.8,32.8-8.3
				c12.5-7.6,17.4-18.2,20.1-25.8c3.4-9.3,4.9-19.5,4.9-29.6c0-19.3-5.3-30.7-7.4-35.6c-15-31.3-46.4-30.7-57.6-30.7H99.2V465z"/>
			<path class="st8" d="M261.2,390.5c1.3-3.6,4.2-12.9,16.7-12.9c3.2,0,8,0.6,12.1,4.4c3.2,3.2,3.8,5.3,4.7,8.3h-33.4v0.2H261.2z
				 M325.5,404.2c-0.2-8.9-0.6-20.7-9.7-32c-10.2-12.5-25.2-14.8-38.5-14.8c-9.7,0-29.4,0.4-40.6,17.6c-3.4,5.3-6.6,13.3-6.6,23.9
				c0,18.4,9.1,30.7,21.6,36.8c8,3.8,16.7,5.3,25.4,5.3c5.7,0,21.4-0.8,32.8-8.3c9.1-5.9,12.3-13.3,14-16.9l-30.5-2.1
				c-1.7,2.1-3,3.6-6.1,5.1c-2.1,1.1-5.3,2.1-8.7,2.1c-5.5,0-15.9-3-18.2-16.9L325.5,404.2L325.5,404.2z"/>
			<path class="st8" d="M362.7,390.5c1.3-3.6,4.2-12.9,16.7-12.9c3.2,0,8,0.6,12.1,4.4c3.2,3.2,3.8,5.3,4.7,8.3h-33.4v0.2H362.7z
				 M427.1,404.2c-0.2-8.9-0.6-20.7-9.7-32c-10.2-12.5-25.2-14.8-38.3-14.8c-9.7,0-29.4,0.4-40.6,17.6c-3.4,5.3-6.6,13.3-6.6,23.9
				c0,18.4,9.1,30.7,21.6,36.8c8,3.8,16.7,5.3,25.4,5.3c5.7,0,21.4-0.8,32.8-8.3c9.1-5.9,12.3-13.3,14-16.9l-30.5-1.7
				c-1.7,2.1-3,3.6-6.1,5.1c-2.1,1.1-5.3,2.1-8.7,2.1c-5.5,0-15.9-3-18.2-16.9L427.1,404.2L427.1,404.2z"/>
			<path class="st7" d="M473,335h38.7v89.1c0,8.5-0.2,20.3-8,29.8c-8.3,10.2-19.7,11-30.7,11h-22.2v-30.7h8.7
				c8.3,0,13.5-0.6,13.5-13.3V335L473,335z"/>
			<path class="st8" d="M579.3,402.5c-0.8,4.2-1.9,9.1-7.8,13.1c-4.2,3-9.1,4.4-14,4.4c-8.9,0-10.4-5.5-10.4-7.8
				c0-7,7.6-7.8,11.9-8.3C564.2,403.4,574.4,402.8,579.3,402.5z M548.6,384.5c0.6-2.1,1.5-4.4,6.8-5.9c3.2-0.8,7.8-1.3,9.3-1.3
				c9.1,0,11.6,3,12.7,4.7c1.5,2.3,1.5,4.2,1.5,6.3c-14.2,0.2-34.9,0.6-45.9,4.7c-5.7,2.1-9.5,5.5-11.6,8.9
				c-2.3,3.8-3.4,9.1-3.4,13.8c0,7.4,2.5,13.8,7.6,18.4c5.9,5.3,13.8,7,21.2,7c13.8,0,25-5.9,32.6-9.7c0.2,3.6,0.4,4.4,1.1,7.6H611
				c-2.8-3.2-3.6-5.5-3.6-11.6V386c0-5.3,0-16.9-10.6-23.3c-7.2-4.2-19.7-5.7-32.8-5.7c-15.5,0-26.9,2.8-33,7.2
				c-7.8,5.7-9.3,15-9.9,20.1C520.4,384.5,548.6,384.5,548.6,384.5z"/>
			<path class="st9" d="M610.2,359.8h31.7l5.9,20.5c4,14,4.7,17.4,6.3,30.9c1.7-11,1.9-14.2,5.1-25.4l7.4-26.2h32.2L667.7,440
				c-3.2,8-6.3,15.5-13.5,20.1c-5.3,3.4-9.1,3.8-19,3.8H620v-22h13.5c3,0,5.9-0.8,5.9-4.4c0-1.7-0.8-3.4-1.3-4.9L610.2,359.8z"/>
			<g>
				<path class="st3" d="M201.7,262.4h-19.9l9.9-35.8L201.7,262.4z M136.9,303.1h33.9l4.7-17.1h32.8l4.7,17.1h33.4l-37.3-105.8H174
					L136.9,303.1z"/>
				<path class="st3" d="M278.3,226.9h10.4v20.5h-10.4v26c0,7,3,7,10.4,7v22.4h-18.4c-9.3,0-14.4-1.1-18.2-5.5
					c-2.8-4.4-3-8.5-2.8-12.5l0.2-5.5l0.4-32.2H241v-20.5h9.3l0.2-26.7h27.7L278.3,226.9L278.3,226.9z"/>
				<path class="st3" d="M323.2,197.2v36.4c4.2-4.7,11-12.5,26.7-12.5c11.6,0,21.8,5.5,26.5,12.3c4.9,7.4,4.9,17.8,4.9,25.6v44.2
					h-28.6v-38.7c0-4,0-8.5-1.3-11.9c-1.5-3.6-5.5-8-12.5-8c-3,0-6.1,0.4-8.7,2.3c-6.8,4.4-7.2,12.9-7.2,20.1v36.2h-28.6V197.5h28.8
					L323.2,197.2L323.2,197.2z"/>
				<path class="st3" d="M417.8,254.6c1.3-3.6,4.2-12.9,16.5-12.9c3,0,7.8,0.6,11.9,4.4c3,3.2,3.6,5.5,4.7,8.5H417.8L417.8,254.6z
					 M480.9,268.4c-0.2-8.9-0.6-21-9.7-32.2c-9.9-12.7-24.8-14.8-37.7-14.8c-9.7,0-29,0.4-40,17.8c-3.4,5.3-6.6,13.5-6.6,23.9
					c0,18.6,8.9,30.9,21.4,37c7.8,3.8,16.5,5.3,25,5.3c5.5,0,21-0.8,32.2-8.5c8.9-5.9,12.1-13.5,13.5-17.1l-30.1-1.9
					c-1.7,2.1-3,3.6-5.9,5.1c-2.1,1.1-5.1,2.1-8.5,2.1c-5.5,0-15.7-3-18-16.9L480.9,268.4L480.9,268.4z"/>
				<path class="st3" d="M515.3,233.6c7-6.3,14.8-11.6,27.9-11.6c8.7,0,14.4,1.7,19.9,5.5c9.9,7.2,10.6,17.8,10.6,33.7v41.9H545
					v-36.2c0-5.3-0.2-8-0.6-10.2c-2.1-9.1-8.5-11.9-14-11.9c-3.6,0-7,1.1-9.7,3.8c-5.3,5.3-5.3,12.1-5.3,19.3v35.3h-29v-79.6h29
					L515.3,233.6L515.3,233.6z"/>
				<path class="st3" d="M607.6,277.2c0.2,1.3,0.4,2.8,1.9,4.4c2.5,3.4,8.3,4.9,13.1,4.9c5.7,0,11.4-1.9,11.4-7
					c0-1.3-0.4-2.3-0.8-2.8c-1.5-2.3-6.1-3-15-4.7c-5.1-0.8-10.2-1.9-15-3.4c-12.5-3.6-21.2-7.4-21.2-22.4
					c0-25.4,31.5-25.6,40.2-25.6c18.6,0,36.8,5.5,40.8,26.5l-28.6,1.5c-1.3-8-11.6-8.5-14.2-8.5c-5.5,0-10.2,1.9-10.2,6.3
					c0,2.5,1.7,3.8,5.5,5.1c3.6,1.3,21.6,3.8,25.8,4.4c9.7,1.9,21.8,4.4,21.8,20.5c0,7.8-3,12.9-6.1,16.3
					c-5.3,6.3-14.4,12.7-34.9,12.7c-14,0-26.5-3-33.2-7.4c-7.4-4.9-9.5-11.2-10.2-19.5L607.6,277.2z"/>
			</g>
			<path class="st3" d="M235.8,506c18.4-0.6,28.6,4,28.6,17.8c0,11.4-9.3,17.1-27.3,17.1c-5.3,0-25.4-0.2-25.4-17.4
				C211.6,508.4,226,506.5,235.8,506z M265.8,555.1c-0.2,6.1-1.1,19.9-11,29.2c-5.9,5.5-13.5,7.4-21,7.4c-11.6,0-15.5-5.3-18.4-9.3
				l-47.8,1.3c3.2,14,9.9,26.5,29.6,33.4c12.7,4.7,25.4,5.5,35.3,5.5c18,0,37.9-1.9,54-15.7c21.2-18.4,23.7-46.4,23.7-62
				c0-49.7-27.7-70.1-70.7-70.1c-4.7,0-30.1,0.4-47,9.3c-19.3,10.2-24.8,27.7-24.8,41.5c0,32.4,25.2,45.9,55.2,45.9
				C249.7,571.6,259.5,561.5,265.8,555.1z"/>
			<path class="st3" d="M360.2,509.6l-1.7,21.6c7-3.2,19.9-8.9,40-8.9c16.9,0,32.4,4.2,43,13.5c14,12.5,14,28.1,14,32.2
				c0,17.4-8.7,38.5-34.3,48.5c-15.5,5.9-36,6.1-40.4,6.1c-23.5,0-37.9-5.7-45.9-10.4c-18.6-10.8-20.3-26-21.2-33l43.8-2.1
				c3.2,11,16.5,14,26.2,14c13.1,0,26.9-6.1,26.9-21c0-15.9-17.4-19-27.5-19c-14.6,0-20.7,5.3-24.3,8l-38.3-0.8l6.3-81.1h122.8
				l-2.5,32.2L360.2,509.6L360.2,509.6z"/>
			<path class="st3" d="M459.7,586h34.5v33.7h-34.5V586z"/>
			<path class="st3" d="M632.2,619.5H503.1v-29.2c4.4-9.3,10.4-21.8,32.8-36.6c5.1-3.4,7.6-4.7,30.9-16.7
				c12.7-6.8,19.7-10.4,19.7-19c0-12.1-15.2-12.5-20.1-12.5c-5.1,0-10.2,0.6-14.4,3.8c-7,5.1-7.2,12.7-7.4,18l-37.9-1.1
				c0.6-10.8,1.1-20.7,7.2-30.7c7.6-12.5,19.7-20.3,57.1-20.3c27.5,0,42.1,5.9,50.8,16.3c5.9,7.2,8.3,15.5,8.3,24.8
				c0,20.7-15.2,32-27.9,38.7c-7.4,4-15,7.4-22.2,11c-4.7,2.3-18.8,9.5-28.4,17.6c-1.3,0.8-2.3,1.9-3.4,3c1.9-0.2,3.6-0.2,5.5-0.2
				s3.8-0.2,5.9-0.2h72.8L632.2,619.5L632.2,619.5z"/>
			<g>
				<path class="st3" d="M112.4,449.3V440c0-2.3,0.6-3,1.1-3.4c0.6-0.4,1.3-0.4,1.7-0.4c2.5,0,2.8,2.3,2.8,3.6v9.7L112.4,449.3
					L112.4,449.3z M131.4,455.2v-6.1h-9.3v-7l9.3-6.6v-7.2l-9.5,7.4c-0.2-1.1-0.4-2.5-1.5-4c-1.3-1.7-3.4-2.3-5.1-2.3
					c-1.3,0-3,0.4-4.4,1.5c-2.1,2.1-2.5,4.4-2.5,7.2v16.7L131.4,455.2L131.4,455.2z"/>
				<path class="st3" d="M123.8,411.9c0.8,0,1.3,0,2.1,0.6c1.5,1.1,2.5,3.4,2.5,5.7c0,0.6,0,3.8-2.1,3.8c-1.7,0-1.9-1.7-2.1-2.1
					C123.8,418.4,123.8,415.7,123.8,411.9z M121.7,406.3c-3.4,0-7.4,0-7.4,10.4c0,1.7,0,5.5,1.5,8c1.3,2.1,2.8,2.3,3.8,2.5v-5.7
					c-1.3-0.4-1.5-2.8-1.5-4.7c0-4.9,1.5-4.9,3-4.9v5.3c0,5.5,0.2,10.8,5.3,10.8c2.5,0,4.4-1.9,5.1-4.2c0.4-1.3,0.4-2.8,0.4-4
					c0-3.8-1.1-5.9-2.1-7.8c0.4,0,1.1,0,1.7-0.4v-6.1c-0.8,0.6-1.1,0.8-2.1,0.8C129.5,406.3,121.7,406.3,121.7,406.3z"/>
				<path class="st3" d="M118.3,392.6c0-1.3,0.2-2.8,0.8-3.8c0.4-0.4,1.3-1.9,4-1.9c4,0,5.3,3,5.3,5.3c0,4.2-3.4,5.1-5.3,5.1
					C120.6,397.2,118.3,395.6,118.3,392.6z M116.6,386.9c-0.4,0.6-1.1,1.5-1.5,3c-0.4,1.3-0.6,2.5-0.6,4c0,5.5,3.6,9.3,8.9,9.3
					c5.3,0,8.7-4,8.7-9.3c0-2.5-0.8-4.7-1.7-5.7c-0.2-0.4-0.6-0.8-0.8-1.1h1.9v-5.5h-23.1v5.5C108.3,386.9,116.6,386.9,116.6,386.9z
					"/>
				<path class="st3" d="M109.2,371.2h3.6v5.5h-3.6V371.2z M114.9,371.2h16.5v5.5h-16.5C114.9,376.7,114.9,371.2,114.9,371.2z"/>
				<path class="st3" d="M118.1,356.6c-0.2-4,1.9-6.3,4.9-6.3c2.3,0,5.1,1.3,5.1,5.9c0,5.7-4,6.1-4.9,6.1
					C120.6,362.3,118.3,360.6,118.1,356.6z M114.3,356c0,7,3.4,12.1,9.1,12.1c5.5,0,8.9-4.9,8.9-11.9c0-6.6-3.2-11.9-9.1-11.9
					C118.3,344.3,114.3,348.4,114.3,356z"/>
			</g>
		</g>
	</g>
</g>
<g id="Layer_3" class="st0">
	<g class="st2">
		<g>
			<rect class="st10" width="800" height="800"/>
		</g>
	</g>
	<circle class="st11" cx="400" cy="400" r="351.9"/>
	<g class="st2">
		<path class="st12" d="M222.7,450.4v-7.9h13l-20.9-56.6l-22.4,56.6h13.4v7.9h-43.5v-7.9h10.5l32-78.5c-1.3-3.1-2.9-6.6-4.8-10.4
			c-1.9-3.8-4.3-7.7-7-11.6s-5.8-7.6-9.4-11.2c-3.6-3.6-7.6-6.6-12.1-9.1l9.2-13.4c5.3,3.5,9.9,7.5,13.8,12s7.4,9.2,10.3,14.1
			c2.9,4.9,5.5,9.8,7.5,14.8c2.1,5,3.9,9.7,5.6,14.2c3,8.5,5.8,16.4,8.5,23.6c2.6,7.2,5.7,15.6,9.3,25.2s7.4,19.7,11.6,30.2h11.1
			v7.9L222.7,450.4L222.7,450.4z"/>
		<path class="st12" d="M293.4,345.4l-8.3-2.1l12.2-26.5h15.4l2.3,3.6L293.4,345.4z M308.5,380.2c0-3.4-1.2-6.5-3.6-9.2
			c-2.4-2.8-5.8-4.1-10.2-4.1c-4.6,0-8.7,1.1-12.1,3.3c-3.5,2.2-6.3,5.1-8.6,8.6c-2.3,3.5-4,7.5-5.1,11.9s-1.7,8.7-1.7,13
			c0,3.4,0.2,7.1,0.7,11.3c0.4,4.1,1.4,8.1,2.8,11.8c1.4,3.7,3.5,6.8,6.1,9.3s6.1,3.8,10.5,3.8c2.8,0,6-0.6,9.6-1.8
			c3.6-1.2,7.5-3,11.5-5.6v-52.3L308.5,380.2L308.5,380.2z M312.2,452.1l-4-12.6c-2.4,1.8-5,3.5-8,5.3c-2.9,1.8-5.9,3.3-8.7,4.5
			c-2.1,0.9-4.3,1.6-6.5,2.2s-4.2,0.8-6.1,0.8c-5.3,0-9.8-1.3-13.6-4c-3.8-2.6-7-6.1-9.4-10.4s-4.3-9.2-5.5-14.7s-1.8-11-1.8-16.6
			c0-6.9,1-13.4,3-19.4s4.9-11.2,8.6-15.6c3.7-4.4,8.2-7.9,13.5-10.4c5.3-2.6,11.2-3.9,17.7-3.9c3.3,0,6.5,0.5,9.8,1.6
			s6.3,3,9.2,5.7l4-7.3h13.5v83h12.4v6.6L312.2,452.1z"/>
		<path class="st12" d="M400.7,452.3v-13.4c-4,4.1-8.1,7.3-12.1,9.6c-4.1,2.3-8.5,3.4-13.3,3.6c-1.9,0-4-0.2-6.2-0.7
			c-2.3-0.4-4.1-1.2-5.5-2.2v34.1h14.9v8.3h-47.2v-8.3h13V369.7h-12.8v-6.6l32.2-6.2v63.2c0,6.8,1.5,11.5,4.5,14.2s7.3,4,13,4
			c3,0,6.3-0.7,9.8-2.2c3.5-1.4,6.8-3,9.8-4.8v-61.7H388V363l32.2-6.2V440H433v6.6L400.7,452.3z"/>
		<path class="st12" d="M533.5,368.2v45.9c0,5-0.9,9.8-2.7,14.2c-1.8,4.5-4.4,8.4-7.8,11.9c-3.4,3.5-7.5,6.2-12.4,8.4
			c-4.9,2.1-10.4,3.3-16.6,3.6v31h14.3v8.3h-46.9v-8.1h13.2v-31.2c-6.1-0.3-11.7-1.4-16.6-3.5s-9-4.8-12.4-8.2
			c-3.4-3.4-6-7.3-7.7-11.9c-1.8-4.5-2.6-9.3-2.6-14.3v-45.9h-12.8v-8.7h31.2v55.5c0,4.1,0.6,7.8,1.9,11s2.9,5.9,4.8,8.2
			c1.9,2.3,4.2,4.1,6.7,5.5s5,2.3,7.5,2.6v-91.6H465v-7l29-5.4v104.2c2.5-0.4,5-1.3,7.4-2.7c2.4-1.4,4.7-3.4,6.8-5.7
			c2.1-2.4,3.7-5.2,5-8.5c1.3-3.3,1.9-6.8,1.9-10.5v-55.5h31.2v8.5L533.5,368.2L533.5,368.2z"/>
		<path class="st12" d="M594.1,450.4V442h11.5v-49.9c0-6.9-1.4-12.1-4.1-15.6c-2.8-3.5-7.3-5.3-13.7-5.3c-3,0-6.2,0.5-9.6,1.5
			c-3.4,1-6.7,2.1-10,3.2v66h11.7v8.5h-43.8V442h12.8v-72.2h-13.2v-6.6l32.5-6v11.3c5.6-3.3,11.1-5.9,16.5-8
			c5.3-2.1,10.2-3.1,14.6-3.1c5.3,0,10.2,1.1,14.8,3.3c4.6,2.2,8.2,6.2,11,11.9V442h12.8v8.5h-43.8V450.4z"/>
	</g>
</g>
<g id="Layer_5" class="st0">
	<rect x="0.4" class="st1" width="799.6" height="800"/>
	<g class="st2">
		<g>
			<rect class="st6" width="800" height="800"/>
		</g>
	</g>
	<g class="st2">
		<g>
			<rect class="st10" width="800" height="800"/>
		</g>
	</g>
	<circle class="st11" cx="400" cy="400" r="351.9"/>
	<g class="st2">
		<rect x="177.4" y="392.2" class="st13" width="445.2" height="5.2"/>
		<g>
			<path class="st12" d="M235.1,328.1v-7.3h12.1l-19.4-52.7L207,320.8h12.4v7.3H179v-7.3h9.8l29.7-73c-1.2-2.9-2.7-6.2-4.5-9.7
				c-1.8-3.6-4-7.1-6.5-10.8c-2.5-3.6-5.4-7.1-8.7-10.4c-3.3-3.3-7.1-6.2-11.3-8.5l8.6-12.4c4.9,3.3,9.2,7,12.9,11.2
				s6.9,8.6,9.6,13.1c2.7,4.6,5.1,9.1,7,13.7c1.9,4.6,3.6,9,5.2,13.2c2.8,7.9,5.4,15.3,7.9,22c2.4,6.7,5.3,14.5,8.7,23.4
				c3.3,8.9,6.9,18.3,10.8,28.1h10.3v7.3h-33.4L235.1,328.1L235.1,328.1z"/>
			<path class="st12" d="M300.9,230.5l-7.7-1.9l11.4-24.7h14.3l2.1,3.3L300.9,230.5z M314.9,262.9c0-3.1-1.1-6-3.3-8.6
				c-2.2-2.6-5.4-3.8-9.4-3.8c-4.3,0-8.1,1-11.3,3.1c-3.2,2-5.9,4.7-8,8s-3.7,6.9-4.7,11c-1.1,4.1-1.6,8.1-1.6,12.1
				c0,3.2,0.2,6.6,0.6,10.5c0.4,3.8,1.3,7.5,2.6,10.9c1.3,3.4,3.2,6.3,5.7,8.7c2.5,2.3,5.7,3.5,9.8,3.5c2.6,0,5.5-0.6,8.9-1.7
				s6.9-2.8,10.7-5.2L314.9,262.9L314.9,262.9z M318.4,329.7l-3.7-11.7c-2.2,1.6-4.7,3.3-7.4,4.9c-2.7,1.6-5.5,3-8.1,4.2
				c-2,0.8-4,1.5-6,2s-3.9,0.8-5.7,0.8c-4.9,0-9.1-1.2-12.7-3.7c-3.6-2.4-6.5-5.7-8.7-9.7c-2.3-4-4-8.6-5.1-13.6
				c-1.1-5.1-1.7-10.2-1.7-15.5c0-6.4,0.9-12.4,2.8-18s4.5-10.4,8-14.5c3.4-4.1,7.6-7.3,12.5-9.7s10.4-3.6,16.4-3.6
				c3,0,6.1,0.5,9.1,1.5s5.9,2.8,8.6,5.3l3.7-6.8H333v77.2h11.5v6.1L318.4,329.7z"/>
			<path class="st12" d="M400.6,329.9v-12.4c-3.7,3.8-7.5,6.8-11.3,8.9s-7.9,3.2-12.3,3.3c-1.7,0-3.7-0.2-5.8-0.6
				c-2.1-0.4-3.8-1.1-5.1-2v31.7H380v7.7h-43.9v-7.7h12.1V253.1h-11.9V247l29.9-5.8V300c0,6.3,1.4,10.7,4.2,13.2
				c2.8,2.5,6.8,3.8,12.1,3.8c2.8,0,5.8-0.7,9.1-2c3.3-1.3,6.3-2.8,9.1-4.5v-57.4h-11.9V247l29.9-5.8v77.3h11.9v6.1L400.6,329.9z"/>
			<path class="st12" d="M524.1,251.7v42.7c0,4.7-0.8,9.1-2.5,13.2s-4.1,7.8-7.3,11s-7,5.8-11.6,7.8s-9.7,3.1-15.4,3.3v28.9h13.3
				v7.7H457v-7.5h12.2v-29c-5.7-0.2-10.9-1.3-15.4-3.2c-4.6-1.9-8.4-4.5-11.6-7.6c-3.2-3.2-5.5-6.8-7.2-11
				c-1.6-4.2-2.5-8.6-2.5-13.3V252h-11.9v-8h29v51.6c0,3.9,0.6,7.3,1.8,10.2c1.2,3,2.7,5.5,4.5,7.6s3.9,3.8,6.2,5.1
				c2.3,1.3,4.7,2.1,7,2.5v-85.2h-8.9v-6.5l26.9-5.1V321c2.3-0.4,4.6-1.2,6.9-2.5s4.4-3.1,6.3-5.3c1.9-2.2,3.5-4.8,4.6-7.9
				c1.2-3,1.8-6.3,1.8-9.8v-51.6h29v7.9h-11.6V251.7z"/>
			<path class="st12" d="M580.5,328.1v-7.9h10.7v-46.4c0-6.4-1.3-11.3-3.8-14.5c-2.6-3.3-6.8-4.9-12.8-4.9c-2.8,0-5.8,0.5-8.9,1.4
				c-3.2,0.9-6.2,1.9-9.3,3v61.4h10.9v7.9h-40.8v-7.9h11.9V253h-12.2v-6l30.3-5.6v10.5c5.2-3,10.4-5.5,15.3-7.4
				c5-1.9,9.5-2.9,13.6-2.9c4.9,0,9.5,1,13.7,3.1c4.3,2,7.7,5.7,10.2,11.1v64.6h11.9v7.9h-40.7L580.5,328.1L580.5,328.1z"/>
			<path class="st10" d="M320.1,516.9c-4.7,10.6-11.1,20.3-19.1,29s-17.4,16.3-28,22.7c-10.6,6.5-21.9,11.9-33.7,16.3l-4.6-10.3
				c9.6-4.4,18.6-9.7,27-15.9c8.4-6.2,15.7-13.2,21.9-21c6.2-7.8,11.1-16.3,14.7-25.5s5.4-19,5.4-29.3c0-4.7-0.4-9.7-1.3-15
				s-2.5-10.2-4.8-14.8c-2.3-4.5-5.4-8.3-9.2-11.3c-3.8-3-8.7-4.5-14.7-4.5c-5,0-9.3,1.1-13,3.3c-3.7,2.2-6.8,5.1-9.3,8.6
				c-2.5,3.6-4.3,7.6-5.5,12s-1.8,9-1.8,13.7c0,5.4,0.9,10.6,2.7,15.7s4.4,9.4,7.9,12.9c3.4,3.5,7.5,5.9,12.1,7.1
				c4.7,1.2,9.8,0.6,15.5-1.9l1.5-0.7l3.1,10.1c-0.6,0.3-1.2,0.6-1.9,0.9c-0.7,0.3-1.1,0.5-1.4,0.7c-8.5,3.6-16.6,5.1-24.3,4.4
				c-7.7-0.7-14.6-3.1-20.6-7.2c-6-4.1-10.8-9.5-14.3-16.4c-3.6-6.9-5.4-14.6-5.4-23.2c0-7.7,1.4-14.8,4.2-21.3s6.7-12,11.7-16.6
				s11-8.2,17.8-10.7c6.9-2.5,14.4-3.8,22.5-3.8c8.7,0,16.4,1.5,23,4.5s12,7,16.2,12.1s7.4,11.1,9.5,18s3.2,14.3,3.2,22.2
				C327.2,494.6,324.8,506.3,320.1,516.9"/>
			<path class="st10" d="M329.1,574.6v-15.5c3.9-3.1,8.5-6.6,13.6-10.7c5.1-4.1,10.4-8.5,15.7-13.2c5.4-4.7,10.6-9.8,15.7-15.1
				s9.7-10.8,13.8-16.5c4.1-5.7,7.4-11.4,9.8-17.2c2.5-5.8,3.7-11.5,3.7-17.2c0-9.9-2.2-17.5-6.6-22.9c-4.4-5.3-10.9-8-19.5-8
				c-6.4,0-12.8,1.7-19,5c-6.3,3.4-11.3,8.5-15.1,15.3l-12.7-15.3c7.4-6.4,15-11.1,22.7-13.9s16.6-4.3,26.7-4.3
				c6.3,0,12.4,0.8,18.3,2.4s11.1,4.1,15.6,7.5s8.2,7.7,10.9,12.9c2.8,5.2,4.2,11.3,4.2,18.5c0,5.7-1.2,11.4-3.7,17.3
				c-2.5,5.8-5.8,11.5-10,17.1c-4.2,5.5-8.8,10.9-14,16.1s-10.5,10.1-16,14.8s-10.8,8.9-16,12.8c-5.2,3.9-9.8,7.3-13.9,10.4h69.1
				V542H433v32.6H329.1L329.1,574.6z"/>
			<path class="st10" d="M472.3,573.9c-1.4,4.2-3.2,8.1-5.4,11.7c-2.2,3.6-4.7,7-7.4,10.2c-2.8,3.1-5.5,5.9-8.1,8.2l-6.1-4.4
				c2.5-3.1,4.6-6.6,6.3-10.6c1.8-4,2.5-8.6,2.2-13.7c-3.4-0.7-6-2.4-7.9-5.1c-1.9-2.7-2.8-5.7-2.8-9.1c0-2,0.4-4,1.3-6
				s2-3.7,3.5-5.1c1.5-1.5,3.1-2.6,5-3.5s3.8-1.3,5.7-1.3c4.4,0,8.1,1.5,11.2,4.6s4.6,6.8,4.6,11.2
				C474.4,565.4,473.7,569.7,472.3,573.9"/>
			<path class="st10" d="M576.5,551c-2.9,5.5-6.9,10.2-12,14.1c-5.1,3.9-11.1,6.8-18,8.9c-6.8,2-14.2,3.1-22.1,3.1
				c-8.7,0-16.6-1.4-23.6-4c-7-2.7-13.3-6.2-18.8-10.4l5.2-8.1c3.4,1.9,6.5,3.5,9.5,4.9s6,2.5,9,3.4s6,1.5,9.1,2
				c3.1,0.4,6.3,0.7,9.8,0.7c4.5,0,8.7-0.8,12.6-2.5c3.9-1.7,7.2-3.9,10.1-6.8c2.8-2.8,5.1-6.3,6.6-10.3c1.6-4,2.4-8.3,2.4-12.8
				c0-8.7-2.9-15.5-8.7-20.1c-5.8-4.7-13.3-7.1-22.3-7.4l-14-0.4v-11.6l8.7-0.7c9.6-0.7,17.2-3.5,22.6-8.2
				c5.5-4.7,8.2-11.2,8.2-19.4c0-8-2.3-14.5-7-19.5s-10.8-7.4-18.4-7.4c-4.2,0-8.8,1.2-13.7,3.6c-4.9,2.4-9.2,6.6-13,12.6L486.4,439
				c6.9-5.4,14.1-9,21.6-10.8c7.6-1.8,14.9-2.7,21.9-2.7c6.7,0,12.9,0.9,18.5,2.7c5.6,1.8,10.4,4.3,14.4,7.5s7.1,7.1,9.3,11.6
				s3.4,9.6,3.4,15.1c0,8.7-2.6,16.1-7.8,22s-12.2,10.1-21.1,12.6c10.7,0.7,19.1,4.4,25.2,11c6.1,6.6,9.1,14.8,9.1,24.4
				C580.9,539.3,579.4,545.5,576.5,551"/>
		</g>
	</g>
</g>
<g id="Layer_4" class="st0">
	<g class="st2">
		<g>
			<rect class="st14" width="800" height="800"/>
		</g>
	</g>
	<g class="st2">
		<path class="st3" d="M561.8,369.1c-1,0-1.9,0-2.9,0c-5.7,0-11.4-0.1-17.1,0c-1.9,0-3.1-0.6-4.2-2c-8.6-10.6-17.2-21.1-25.9-31.6
			c-0.3-0.4-0.6-0.7-1.3-1.1c0,0.5,0,1.1,0,1.6c0,10.4,0,20.9,0,31.3c0,1.4-0.4,1.8-1.8,1.7c-6.5-0.1-12.9,0-19.4,0
			c-0.5,0-1,0-1.5-0.1v-64.5c0.5,0,1-0.1,1.4-0.1c6.6,0,13.1,0,19.7,0c0.9,0,1.5,0.2,2.1,1c9,11.1,18.1,22.1,27.1,33.1
			c0.3,0.3,0.6,0.6,1.1,1.3v-35.3h22.6v64.7L561.8,369.1L561.8,369.1z"/>
		<path class="st3" d="M343,304.5v22.3h26v-22.3c0.6,0,1.1-0.1,1.5-0.1c7.1,0,14.2,0,21.3,0c1.1,0,1.5,0.3,1.5,1.5
			c0,20.5,0,41.1,0,61.6c0,1.2-0.3,1.6-1.6,1.6c-7.1-0.1-14.1-0.1-21.2,0c-1.4,0-1.6-0.5-1.6-1.7c0.1-7.6,0-15.1,0.1-22.7
			c0-1.3-0.3-1.7-1.6-1.7c-7.6,0.1-15.2,0-22.8,0c-0.5,0-1,0.1-1.6,0.1V369c-0.5,0-1,0.1-1.4,0.1c-7.1,0-14.1,0-21.2,0
			c-1.2,0-1.6-0.4-1.6-1.6c0-20.5,0-41,0-61.4c0-1.3,0.3-1.7,1.7-1.7c7,0.1,13.9,0,20.9,0C341.8,304.5,342.3,304.5,343,304.5"/>
		<path class="st3" d="M409.1,369v-64.5c0.6,0,1.1-0.1,1.6-0.1c20.4,0,40.8,0,61.1,0c1.3,0,1.7,0.3,1.7,1.7c-0.1,3.5-0.1,7,0,10.4
			c0,1.5-0.3,1.9-1.9,1.9c-12.2-0.1-24.4,0-36.5-0.1c-1.5,0-2,0.3-1.9,1.9c0.1,2.1,0.1,4.3,0,6.4c-0.1,1.4,0.4,1.8,1.7,1.8
			c11.2-0.1,22.4,0,33.5,0c2.1,0,2.1,0,2.1,2.1c0,3.1-0.1,6.3,0,9.4c0,1.4-0.3,1.9-1.8,1.9c-11.3-0.1-22.6,0-33.8-0.1
			c-1.4,0-1.8,0.4-1.8,1.7c0.1,2.9,0,5.8,0,8.6c0,2.1,0,2.1,2.1,2.1c12.5,0,25,0,37.4,0c1.6,0,1.9,0.4,1.9,1.9
			c-0.1,3.7,0,7.5,0,11.2v1.7h-65.4L409.1,369L409.1,369z"/>
		<path class="st3" d="M641.4,322.8c-2,0.1-4,0.2-5.9,0.3c-5.1,0.2-10.2,0.5-15.3,0.7c-0.7,0-1.4,0.1-1.6-0.9
			c-1.5-6.1-6-7.2-10.2-7.4c-1.8-0.1-3.6,0.2-5.3,0.5c-0.9,0.2-1.8,0.7-2.5,1.2c-2.4,1.9-2.3,4.8,0.6,6.1c2.4,1,5,1.5,7.6,2.1
			c6.3,1.5,12.6,2.8,18.8,4.4c2.5,0.7,4.9,1.8,7.2,3.1c10.5,5.8,12.6,18.1,4.6,27.2c-3.8,4.3-8.6,6.8-14.1,8.1
			c-12,2.7-24,2.7-35.8-0.9c-9-2.7-14-9.2-15.7-18.3c-0.3-1.3,0-1.7,1.4-1.8c6.6-0.3,13.2-0.6,19.8-1c1.1-0.1,1.6,0.2,1.9,1.4
			c1.4,5.7,5,8.8,10.8,9.4c1.7,0.2,3.4,0.1,5.1,0c1-0.1,2-0.3,2.9-0.7c3-1,4.9-3.2,4.9-5.6c0-3.1-2.1-4.8-4.6-5.6
			c-3.8-1.2-7.8-1.9-11.7-3c-5.2-1.4-10.4-2.9-15.6-4.5c-3.1-1-5.9-2.9-8.2-5.3c-6-6.4-5.3-15.9,1.5-21.9c4.2-3.7,9.3-5.5,14.7-6.3
			c9.3-1.4,18.6-1.5,27.8,0.7c4.5,1.1,8.7,2.9,11.9,6.4c2.8,3,4.3,6.6,4.9,10.7C641.5,322.3,641.4,322.5,641.4,322.8"/>
		<path class="st3" d="M197.8,321.6c-2.9,7.8-5.6,15.2-8.3,22.7h16.6C203.4,336.8,200.7,329.4,197.8,321.6 M240.3,369.1
			c-0.9,0-1.5,0-2.2,0c-7.2,0-14.3,0-21.5,0c-1.3,0-1.8-0.4-2.2-1.6c-0.9-2.6-1.9-5.2-2.8-7.9c-0.3-0.9-0.7-1.2-1.7-1.2
			c-8.2,0-16.4,0-24.6,0c-0.9,0-1.3,0.3-1.6,1.1c-1,2.8-2,5.6-3,8.4c-0.3,0.8-0.6,1.1-1.5,1.1c-7.6,0-15.2,0-22.8,0
			c-0.2,0-0.4-0.1-0.7-0.1c0.3-0.7,0.5-1.3,0.8-1.8c9.2-20.5,18.5-40.9,27.7-61.4c0.5-1,1-1.3,2.1-1.3c7.8,0,15.6,0,23.4,0
			c1,0,1.6,0.2,2,1.2c9.3,20.7,18.7,41.5,28.1,62.2C240,368.2,240.1,368.5,240.3,369.1"/>
		<path class="st3" d="M259.4,369v-48.4h-1.9c-7,0-13.9,0-20.9,0c-1.4,0-1.8-0.4-1.7-1.8c0.1-4.7,0-9.4,0-14.3
			c0.6,0,1.1-0.1,1.7-0.1c23.3,0,46.5,0,69.8,0c1.4,0,1.8,0.4,1.7,1.8c-0.1,4.2,0,8.4,0,12.5c0,1.9,0,1.9-2,1.9
			c-6.9,0-13.8,0-20.7,0h-1.8V369H259.4z"/>
		<path class="st3" d="M189.4,413.2c0,0.1-0.1,0.3-0.1,0.4c0,6.4,0,12.8,0,19.2c0,1.1,0.6,1,1.4,1c4.1,0,8.3,0.2,12.4-0.1
			c3.1-0.2,6.2-0.9,9.2-1.7c1.1-0.3,2.3-1.1,3.1-1.9c3.1-3,3.5-6.7,2.4-10.6c-1.2-4-4.3-5.9-8.2-6.1c-6.6-0.4-13.2-0.3-19.8-0.4
			C189.6,413,189.5,413.1,189.4,413.2 M225.7,449.5c2.3,1.1,4.4,1.9,6.3,3c1.3,0.7,2.4,1.7,3.5,2.8c4.5,4.6,7.7,10.2,10.6,15.9
			c3.7,7.4,7.6,14.7,11.4,22c0.2,0.4,0.4,0.8,0.6,1.4c-0.7,0-1.2,0.1-1.7,0.1c-10.7,0-21.5,0-32.2,0c-1.3,0-1.9-0.4-2.5-1.5
			c-5.6-10.4-11.2-20.7-16.8-31.1c-0.7-1.2-1.4-2.4-2.2-3.5c-3-4.5-7.5-5.6-12.5-5.4c-1,0-0.9,0.7-0.9,1.3c0,3.7,0,7.4,0,11
			c0,9,0,18.1,0,27.1v1.9c-0.7,0-1.1,0.1-1.6,0.1c-9.4,0-18.9,0-28.3,0c-1.4,0-1.7-0.4-1.7-1.8c0-33,0-65.9,0-98.9
			c0-1.4,0.4-1.8,1.7-1.8c17.5,0,35-0.1,52.5,0.1c5.9,0.1,11.9,0.6,17.8,1.7c11.9,2.3,19.8,12,20.3,24.2c0.2,3.8,0.1,7.6-1.1,11.2
			c-3,9.8-9.6,15.9-19.2,18.9C228.3,448.7,227.1,449.1,225.7,449.5"/>
		<path class="st3" d="M528.1,494.6c-0.7,0-1.2,0.1-1.7,0.1c-9.4,0-18.8,0-28.2,0c-1.4,0-1.7-0.4-1.7-1.8c0-33,0-65.9,0-98.9
			c0-1.4,0.4-1.8,1.7-1.7c9.4,0.1,18.8,0.1,28.2,0c1.3,0,1.7,0.4,1.7,1.7c-0.1,11.6,0,23.3,0,34.9c0,0.5,0,1.1,0.3,1.7
			c0.5-0.5,1-1.1,1.4-1.6c10.2-11.9,20.4-23.8,30.6-35.6c0.5-0.5,1.3-1,2-1c13.3-0.1,26.6,0,40,0c0.2,0,0.4,0,0.9,0.1
			c-1.7,1.8-3.2,3.3-4.7,4.9c-10.5,10.9-21,21.7-31.5,32.5c-0.8,0.9-0.8,1.4-0.2,2.4c12.3,20,24.6,40.1,36.8,60.1
			c0.4,0.6,0.8,1.3,1.3,2.2c-0.8,0-1.3,0.1-1.9,0.1c-11.8,0-23.6,0-35.3,0c-1.2,0-1.8-0.4-2.4-1.5c-6.7-13.1-13.4-26.1-20-39.1
			c-0.2-0.4-0.4-0.8-0.4-0.7c-2.2,2-4.5,3.9-6.6,6c-3.1,3.1-6.2,6.3-9.2,9.6c-0.5,0.6-0.9,1.6-0.9,2.3c-0.1,7.2,0,14.3,0,21.5v1.8
			H528.1z"/>
		<path class="st3" d="M336.8,442.9c-0.1,0-0.2,0-0.3-0.1c-0.1-2.4-0.2-4.9-0.5-7.3c-0.5-4.4-1.5-8.7-4-12.4
			c-4.9-7.2-12-9.4-20.2-8.5c-8.4,1-14,5.8-16.4,13.8c-2.7,9.1-2.6,18.5-0.7,27.7c2,9.7,8.1,15.3,18,16.3s19.3-3.1,22-15.1
			C335.9,452.7,336.2,447.8,336.8,442.9 M262,444.6c0-9.6,1.1-18,4.5-25.9c5.8-13.5,16-22,30.2-25.8c13.4-3.5,26.9-3.3,40.1,1
			c14.5,4.7,24.1,14.6,28.5,29.2c4.1,13.7,3.9,27.7-0.2,41.3c-4.6,15.4-15.1,25.4-30.6,29.7c-13.8,3.8-27.7,3.5-41.3-0.9
			c-15.9-5.1-25.1-16.7-29.3-32.5C262.4,455,261.9,449.3,262,444.6"/>
		<path class="st3" d="M453.3,452.9c2.4,0.7,4.7,1.4,7,2.1c6.4,1.9,12.8,3.9,19.3,5.8c0.8,0.2,1.4,0.4,1.1,1.5
			c-2.7,10.6-7.6,19.8-16.7,26.4c-5.9,4.3-12.5,6.4-19.6,7.3c-10.2,1.2-20.3,0.7-30.3-1.9c-10.7-2.8-18.5-9.5-24.4-18.6
			c-4.5-6.9-6.8-14.6-7.7-22.8c-1-9.1-0.8-18.2,1.5-27.1c4.9-19.2,17.4-30.3,36.7-33.8c10.1-1.8,20.2-1.6,30.2,0.8
			c12,2.9,20.5,10.2,26,21.1c1.4,2.8,2.5,5.7,3.9,8.8c-9.6,2.1-18.8,4.2-28,6.3c-0.4-1-0.8-2-1.1-2.9c-5.3-14.1-24.6-14.9-32.6-4.3
			c-3.1,4-4.4,8.7-4.9,13.6c-0.9,8-0.7,16.1,1.2,24c2.5,10.2,10.5,14.3,19.9,13.7c6.7-0.4,11.9-3.3,15-9.5c0.9-1.7,1.6-3.5,2.3-5.3
			C452.4,456.3,452.8,454.7,453.3,452.9"/>
		<path class="st3" d="M613.7,392.4H644c0,0.6,0.1,1.1,0.1,1.7c0,6.8,0.2,13.5-0.1,20.3c-0.1,4.2-0.9,8.3-1.4,12.4
			c-1.4,11.4-2.9,22.9-4.3,34.3c-0.1,1.1-0.5,1.5-1.6,1.5c-5.3-0.1-10.5-0.1-15.8,0c-1.1,0-1.5-0.3-1.7-1.5
			c-1.8-14.7-3.7-29.4-5.3-44.1c-0.4-3.9-0.2-7.8-0.2-11.8C613.7,401,613.7,396.8,613.7,392.4"/>
		<path class="st3" d="M642.9,494.5h-28c0-0.6-0.1-1-0.1-1.5c0-7.2,0-14.5,0-21.8c0-1.2,0.3-1.6,1.6-1.6c8.4,0,16.8,0,25.2,0
			c0.8,0,1.5,0,1.5,1.2c0,7.6,0,15.3,0,22.9C643,494,642.9,494.2,642.9,494.5"/>
	</g>
</g>
<g>
	<g>
		<g>
			<g>
				<g>
					<g>
						<g>
							<path id="SVGID_00000106133983358561549280000000031311281967497634_" class="st3" d="M587.4,204.2v152.6
								c0,19.1,15.6,34.7,34.7,34.7h23.8v-23.2h-23.8c-6.4,0-11.5-5.3-11.5-11.5v-88.6h36.3v-23h-36.3v-41
								C610.6,204.2,587.4,204.2,587.4,204.2z"/>
						</g>
					</g>
				</g>
			</g>
			<g>
				<g>
					<g>
						<g>
							<path id="SVGID_00000156579259524293563180000012711853300297190037_" class="st3" d="M477.7,245.2
								c-19.1,0-34.7,15.6-34.7,34.7v15c0,19.1,15.6,34.7,34.7,34.7h67.5c6.4,0,11.5,5.3,11.5,11.5v16c0,6.4-5.3,11.5-11.5,11.5
								h-96.4v23h96.4c19.1,0,34.7-15.6,34.7-34.7V341c0-19.1-15.6-34.7-34.7-34.7h-67.5c-6.4,0-11.5-5.3-11.5-11.5v-15
								c0-6.4,5.3-11.5,11.5-11.5h96.4v-23C574.1,245.2,477.7,245.2,477.7,245.2z"/>
						</g>
					</g>
				</g>
			</g>
			<g>
				<g>
					<g>
						<g>
							<path id="SVGID_00000005989441829049044990000006076301674066321564_" class="st3" d="M334,245.2
								c-19.1,0-34.7,15.6-34.7,34.7V357c0,19.1,15.6,34.7,34.7,34.7h97.6v-23.4H334c-6.4,0-11.5-5.3-11.5-11.5v-77.1
								c0-6.4,5.3-11.5,11.5-11.5h67.5c6.4,0,11.5,5.3,11.5,11.5V309l-62.3,20.7v24.4l85.3-28.3v-46.1c0-19.1-15.6-34.7-34.7-34.7
								C401.6,245.2,334,245.2,334,245.2z"/>
						</g>
					</g>
				</g>
			</g>
			<g>
				<g>
					<g>
						<g>
							<path id="SVGID_00000063607501364081736020000003511339817269262520_" class="st3" d="M155.6,204.2v29.5
								c0,19.1,15.6,34.7,34.7,34.7h65.6c6.4,0,11.5,5.3,11.5,11.5V357c0,6.4-5.3,11.5-11.5,11.5H252h-18.9h-50
								c-6.4,0-11.5-5.3-11.5-11.5v-55.4h-23.2v55.2c0,19.1,15.6,34.7,34.7,34.7h72.6c19.1,0,34.7-15.6,34.7-34.7v-77.1
								c0-19.1-15.6-34.7-34.7-34.7h-65.6c-6.4,0-11.5-5.3-11.5-11.5v-29.3H155.6L155.6,204.2z"/>
						</g>
					</g>
				</g>
			</g>
			<g>
				<g>
					<g>
						<g>
							<path id="SVGID_9_" class="st3" d="M315.9,410.3v25.4h106.2c7,0,12.7,5.7,12.7,12.7V465c0,7-5.7,12.7-12.7,12.7h-74.4
								c-21.1,0-38.3,17.2-38.3,38.3v17.4c0,21.1,17.2,38.3,38.3,38.3h106.2v-25.6H347.7c-7,0-12.7-5.7-12.7-12.7V516
								c0-7,5.7-12.7,12.7-12.7h74.4c21.1,0,38.3-17.2,38.3-38.3v-16.6c0-21.1-17.2-38.3-38.3-38.3L315.9,410.3L315.9,410.3z"/>
						</g>
					</g>
				</g>
			</g>
			<g>
				<g>
					<g>
						<g>
							<path id="SVGID_11_" class="st3" d="M538.6,410.2c-21.1,0-38.3,17.2-38.3,38.3v84.9c0,21.1,17.2,38.3,38.3,38.3H613
								c17.4,0,32-11.5,36.7-27.3v-38.5c-4.7-15.8-19.3-27.3-36.7-27.3h-63.7V504h63.6c7,0,12.7,5.7,12.7,12.7v16.6
								c0,7-5.7,12.7-12.7,12.7h-74.4c-7,0-12.7-5.7-12.7-12.7v-84.9c0-7,5.7-12.7,12.7-12.7h107.3v-25.6L538.6,410.2L538.6,410.2z"
								/>
						</g>
					</g>
				</g>
			</g>
			<g>
				<g>
					<g>
						<g>
							<path id="SVGID_13_" class="st3" d="M186.9,410.2c-21.1,0-38.3,17.2-38.3,38.3V465c0,21.1,17.2,38.3,38.3,38.3h63.6v-25.6
								h-63.6c-7,0-12.7-5.7-12.7-12.7v-16.6c0-7,5.7-12.7,12.7-12.7h74.4c7,0,12.7,5.7,12.7,12.7v84.9c0,7-5.7,12.7-12.7,12.7H157
								v25.6h104c21.1,0,38.3-17.2,38.3-38.3v-84.9c0-21.1-17.2-38.3-38.3-38.3h-74.1V410.2z"/>
						</g>
					</g>
				</g>
			</g>
			<g>
				<g>
					<g>
						<g>
							<path id="SVGID_15_" class="st3" d="M465.8,556.5c0,7.6,6.1,13.7,13.7,13.7s13.7-6.1,13.7-13.7s-6.1-13.7-13.7-13.7
								C472,542.8,465.8,549,465.8,556.5"/>
						</g>
					</g>
				</g>
			</g>
			<g>
				<path class="st3" d="M126,225.7c-0.2,0.2-0.2,0.4-0.2,0.4S125.8,225.9,126,225.7C126,225.4,126,225.4,126,225.7
					C126,225.4,126,225.4,126,225.7"/>
				<polyline class="st3" points="126,225.4 126,225.4 126,225.4 126,225.4 				"/>
				<path class="st3" d="M339.1,621c-2,0.8-4.9,1.6-9,2.1c-3.3,0.4-5.5,1.2-6.2,2.1c-1,1-1.4,2.1-1.4,3.5c0,3.5,2.1,5.1,6.4,5.1
					c1.6,0,2.9-0.2,4.1-0.6s2.3-1,3.1-1.8c1-0.8,1.6-1.8,2.1-3.1c0.6-1.2,0.8-2.9,0.8-5.3L339.1,621L339.1,621z M339.7,633.2
					c-3.7,3.1-7.8,4.7-11.9,4.7c-3.3,0-6.1-0.8-8-2.5s-2.9-3.9-2.9-6.8c0-1.6,0.4-3.1,1.2-4.5s2-2.5,3.5-3.5c1.6-1,4.3-1.8,8.2-2.1
					c4.5-0.6,7.8-1.2,9.8-2V615c0-4.5-2.5-6.6-7.8-6.6c-2.9,0-4.9,0.6-6.1,1.6s-2,2.5-2.5,4.7l-5.3-0.8c1.4-6.6,6.2-10,14.6-10
					c2.3,0,4.3,0.2,6.1,0.8c1.8,0.6,3.1,1.2,4.1,2.1c1,1,1.8,2.1,2,3.3c0.4,1.2,0.4,3.1,0.4,5.9v14.2c0,0.8,0.2,1.8,0.4,2.9
					c0.2,1.4,0.8,2.5,1.4,3.7H341C340.1,636,339.7,634.8,339.7,633.2"/>
				<path class="st3" d="M361.6,632.2l0.8,4.9c-1.6,0.4-2.9,0.4-4.1,0.4c-1.8,0-3.1-0.2-4.3-0.8c-1.2-0.6-2-1.4-2.5-2.3
					s-0.8-3.3-0.8-6.8V609h-4.4v-4.3h4.1v-8l5.5-3.3v11.3h5.5v4.3h-5.5v19c0,1.6,0,2.5,0.2,2.9c0.2,0.6,0.6,1,1,1.2s1.2,0.4,1.8,0.4
					C359.6,632.5,360.4,632.5,361.6,632.2"/>
				<path class="st3" d="M366.8,637.1v-44.9h5.5v16c2.5-2.9,5.9-4.5,9.8-4.5c2.9,0,5.3,0.6,6.8,1.8c1.8,1.2,2.9,2.5,3.5,4.5
					c0.6,1.8,0.8,4.1,0.8,6.6v20.5h-5.5v-20.5c0-5.3-2.3-8-6.8-8c-2.1,0-3.7,0.4-5.1,1.4s-2.3,2.1-2.7,3.7c-0.4,1.6-0.8,3.3-0.8,5.5
					V637L366.8,637.1L366.8,637.1L366.8,637.1z"/>
				<path class="st3" d="M402,617.8h18.2c-0.2-3.1-1.2-5.5-2.9-7c-1.6-1.6-3.7-2.3-6.1-2.3c-1.8,0-3.3,0.4-4.7,1.2
					c-1.4,0.8-2.3,1.8-3.1,3.1C402.5,614.2,402.2,615.8,402,617.8 M420.1,626.8l5.7,0.8c-2,7-6.6,10.5-14.2,10.5
					c-3.3,0-6.1-0.6-8.4-2s-4.1-3.3-5.3-5.7c-1.2-2.5-1.8-5.5-1.8-9c0-5.3,1.4-9.6,4.1-12.5c2.7-3.1,6.4-4.7,11.1-4.7
					c1,0,2,0,2.9,0.2c1,0.2,1.8,0.4,2.5,0.8c0.8,0.4,1.6,0.8,2.3,1.2c0.8,0.4,1.4,1,2.1,1.6c0.6,0.6,1.2,1.4,1.8,2.1
					c0.6,0.8,1,1.8,1.4,2.5c0.4,1,0.8,2,1,2.9s0.4,2.1,0.6,3.3c0,0.4,0,1.6,0,3.7h-24.2c0.2,3.3,1.2,6.1,2.9,8c1.8,2,4.1,2.9,7,2.9
					C415.6,633.5,418.6,631,420.1,626.8"/>
				<path class="st3" d="M428.9,637.1v-32.4h4.9v4.7c2.3-3.5,5.9-5.3,10.3-5.3c7.4,0,11.1,3.9,11.1,11.9v21.5h-5.5v-19.7
					c0-5.9-2.3-8.6-6.8-8.6c-5.7,0-8.6,3.5-8.6,10.7v17.8h-5.5v-0.6L428.9,637.1L428.9,637.1z"/>
				<path class="st3" d="M457.8,627.5l5.5-0.8c0.6,4.5,3.5,6.8,8.4,6.8s7.4-1.8,7.4-5.1c0-1.2-0.4-2.1-1.4-2.7
					c-0.8-0.6-2.9-1.4-5.9-2.1c-2-0.6-3.7-1-5.5-1.4c-1.6-0.4-2.9-1.2-4.1-2s-2.1-1.8-2.7-2.9c-0.6-1.2-1-2.3-1-3.7
					c0-1.6,0.4-3.1,1.2-4.5s2.1-2.5,3.9-3.5s4.1-1.4,6.8-1.4c2.5,0,4.9,0.4,6.6,1c1.8,0.6,3.1,1.6,4.3,2.9c1,1.4,1.8,3.1,2.1,5.3
					l-5.5,0.8c-0.6-3.5-2.9-5.3-7.2-5.3c-4.7,0-7,1.4-7,4.1c0,0.8,0.2,1.4,0.6,2s1,1,1.6,1.2s2.3,0.8,5.3,1.6
					c0.8,0.2,2.5,0.6,5.1,1.4c2.7,0.8,4.7,1.8,6.1,3.3c1.4,1.6,2,3.3,2,5.5c0,3.1-1.2,5.7-3.7,7.6c-2.5,1.8-5.7,2.7-9.4,2.7
					C463.6,637.8,459,634.3,457.8,627.5"/>
			</g>
		</g>
		<path class="st4" d="M234.7,310.8c-6.6-11.3-17.8-17.4-26.5-15.2c-1-1.2-2-2.3-2.9-3.5c-2.7-2.9-6.1-6.1-10-8.8
			c-4.1-2.7-9-5.1-14.4-5.7c-5.5-0.8-11.1,0.2-16,2c-2.5,0.8-4.9,2-7.2,3.1c-2.3,1.2-4.7,2.5-6.6,3.5c-1,0.4-1.8,0.8-2.3,1
			c-0.2-1.6,0.2-4.1,0.6-6.2c0.8-4.9,2-10,0.6-15.2c-0.6-2.5-2.3-5.1-4.5-6.2c-2.3-1.4-4.5-1.6-6.2-2.7c-3.7-1.8-6.8-4.5-8.8-7.6
			c-4.5-6.6-4.7-13.3-4.7-17.6c0-2.1,0.2-3.9,0.4-5.1c0-0.4,0-0.6,0-0.8s0-0.2,0-0.4l0,0c0,0,0,0.2,0,0.4s0,0.4-0.2,0.8
			c-0.2,1.2-0.6,2.9-0.6,5.1c-0.2,2.1-0.2,4.9,0.2,8s1.4,6.6,3.3,10c1.9,3.4,5.1,6.4,9,8.6c2,1.2,4.3,1.8,5.9,2.9
			c1.6,1.2,2.5,2.9,2.9,4.9c0.6,4.1-0.6,8.8-2,13.5c-0.6,2.5-1.6,4.7-1.4,8.2c0,1,0.4,2.1,1.6,3.3c1.2,1.2,2.7,1.4,3.7,1.4
			c2,0,3.3-0.6,4.7-1c2.7-1,4.7-2,7-2.9c2.1-0.8,4.5-1.6,6.6-2.1c4.5-1.2,8.8-1.4,12.7-0.4c7.8,1.8,13.5,7.6,17.6,13.1
			c0.8,1.2,1.6,2.3,2.3,3.3c-3.9,6.8-3.3,17.6,2.3,27.1c7.6,12.9,21.1,18.9,30.1,13.9C240.9,338.2,242.3,323.7,234.7,310.8"/>
	</g>
</g>
</svg>
