<?xml version="1.0" encoding="utf-8"?>
<!-- Generator: Adobe Illustrator 19.0.0, SVG Export Plug-In . SVG Version: 6.00 Build 0)  -->
<svg version="1.1" id="Layer_1" xmlns="http://www.w3.org/2000/svg" xmlns:xlink="http://www.w3.org/1999/xlink" x="0px" y="0px"
	 viewBox="183.8 361.3 604.4 66" style="enable-background:new 183.8 361.3 604.4 66;" xml:space="preserve">
<style type="text/css">
	.st0{fill:none;}
	.st1{fill:#FFFFFF;}
</style>
<rect x="631" y="361.3" class="st0" width="157.2" height="66"/>
<rect x="183.8" y="361.3" class="st0" width="449" height="66"/>
<g>
	<polygon class="st1" points="223.7,386.9 215.1,373 200.8,373 200.8,416.3 215,416.3 215,397.4 222.6,409 224.6,409 232.3,397.3 
		232.3,416.3 246.6,416.3 246.6,373 232.3,373 	"/>
	<polygon class="st1" points="267.5,400.5 286.7,400.5 286.7,388.4 267.5,388.4 267.5,385.7 288.7,385.7 288.7,373 253.3,373 
		253.3,416.3 289,416.3 289,403.5 267.5,403.5 	"/>
	<polygon class="st1" points="292,386 304,386 304,416.3 318.5,416.3 318.5,386 330.5,386 330.5,373 292,373 	"/>
	<path class="st1" d="M371.1,397c1.7-2.3,2.6-5.2,2.6-8.6v-0.1c0-4.4-1.4-7.9-4-10.5c-1.5-1.5-3.5-2.8-5.8-3.6
		c-2.3-0.8-5.1-1.2-8.4-1.2h-20.6v43.4h14.4v-12.1h2.3l8.1,12.1h16.9l-10.2-15C368.2,400.2,369.9,398.8,371.1,397z M349.3,385.9h5.6
		c1.5,0,2.6,0.3,3.4,0.9c0.4,0.3,0.9,0.8,0.9,2.2v0.1c0,1-0.3,1.6-0.9,2.2c-0.7,0.6-1.8,0.9-3.3,0.9h-5.7V385.9z"/>
	<path class="st1" d="M417.3,378.7c-2.1-2-4.5-3.6-7.3-4.8c-2.8-1.2-5.9-1.8-9.2-1.8c-3.3,0-6.4,0.6-9.2,1.8
		c-2.8,1.2-5.3,2.8-7.4,4.8s-3.7,4.4-4.9,7.2c-1.2,2.7-1.8,5.7-1.8,8.7v0.1c0,3.1,0.6,6,1.8,8.7c1.2,2.7,2.8,5.1,4.9,7.1
		c2,2,4.5,3.6,7.3,4.8c2.8,1.2,5.9,1.8,9.2,1.8s6.4-0.6,9.2-1.8c2.8-1.2,5.3-2.8,7.4-4.8s3.7-4.4,4.9-7.2c1.2-2.7,1.8-5.7,1.8-8.7
		v-0.1c0-3.1-0.6-6-1.8-8.7S419.3,380.7,417.3,378.7z M397.2,403c-1.1-0.5-2-1.2-2.7-2c-0.8-0.8-1.4-1.8-1.8-2.9s-0.6-2.3-0.6-3.5
		v-0.1c0-1.2,0.2-2.4,0.6-3.5s1-2,1.7-2.8s1.6-1.5,2.7-1.9c1-0.5,2.2-0.7,3.5-0.7s2.4,0.2,3.5,0.7s2,1.2,2.8,2s1.4,1.8,1.8,2.9
		s0.6,2.3,0.6,3.5v0.1c0,1.2-0.2,2.4-0.6,3.5s-1,2.1-1.7,2.9s-1.6,1.4-2.7,1.9C402.1,404,399.3,404,397.2,403z"/>
	<path class="st1" d="M461.2,377c-1.6-1.3-3.6-2.4-5.8-3.1c-2.2-0.7-4.7-1-7.3-1h-18.8v43.4h14.4v-11.4h3.8c2.6,0,5.1-0.3,7.4-1
		s4.3-1.7,6-3c1.7-1.4,3.1-3.1,4-5.1c1-2,1.4-4.3,1.4-7v-0.1c0-2.4-0.4-4.7-1.3-6.6C464.1,380.1,462.8,378.4,461.2,377z
		 M443.6,385.5h3.5c1.6,0,2.9,0.3,3.7,1c0.5,0.4,1.1,1,1.1,2.6v0.1c0,1.1-0.3,1.9-1.1,2.5c-0.8,0.7-2,1-3.6,1h-3.6V385.5z"/>
	<path class="st1" d="M509,378.7c-2.1-2-4.5-3.6-7.3-4.8c-2.8-1.2-5.9-1.8-9.2-1.8s-6.4,0.6-9.2,1.8c-2.8,1.2-5.3,2.8-7.4,4.8
		s-3.7,4.4-4.9,7.2c-1.2,2.7-1.8,5.7-1.8,8.7v0.1c0,3.1,0.6,6,1.8,8.7c1.2,2.7,2.8,5.1,4.9,7.1c2,2,4.5,3.6,7.3,4.8
		c2.8,1.2,5.9,1.8,9.2,1.8s6.4-0.6,9.2-1.8c2.8-1.2,5.3-2.8,7.4-4.8s3.7-4.4,4.9-7.2c1.2-2.7,1.8-5.7,1.8-8.7v-0.1
		c0-3.1-0.6-6-1.8-8.7C512.7,383.1,511,380.7,509,378.7z M488.9,403c-1.1-0.5-2-1.2-2.7-2c-0.8-0.8-1.4-1.8-1.8-2.9
		s-0.6-2.3-0.6-3.5v-0.1c0-1.2,0.2-2.4,0.6-3.5s1-2,1.7-2.8s1.6-1.5,2.7-1.9c1-0.5,2.2-0.7,3.5-0.7s2.4,0.2,3.5,0.7s2,1.2,2.8,2
		s1.4,1.8,1.8,2.9s0.6,2.3,0.6,3.5v0.1c0,1.2-0.2,2.4-0.6,3.5s-1,2.1-1.7,2.9s-1.6,1.4-2.7,1.9C493.8,404,491,404,488.9,403z"/>
	<polygon class="st1" points="535.3,373 520.9,373 520.9,416.3 554.7,416.3 554.7,403.3 535.3,403.3 	"/>
	<rect x="559.2" y="373" class="st1" width="14.5" height="43.4"/>
	<path class="st1" d="M614.6,396.6c-0.8-1.6-2-2.9-3.5-4c-1.4-1-3.1-1.9-5.1-2.7c-1.9-0.7-4.1-1.3-6.4-1.8c-1.3-0.3-2.4-0.6-3.3-0.8
		c-0.8-0.2-1.4-0.5-1.8-0.7c-0.4-0.2-0.5-0.4-0.5-0.4s-0.1-0.1-0.1-0.3v-0.1c0-0.1,0-0.2,0.3-0.5c0.2-0.2,0.7-0.4,2-0.4
		c1.6,0,3.3,0.3,5,0.9c1.8,0.6,3.5,1.5,5.2,2.7l1.4,1l7.4-10.5l-1.2-1c-2.3-1.9-4.9-3.3-7.8-4.3c-2.8-1-6.1-1.4-9.7-1.4
		c-2.6,0-4.9,0.3-7,1s-3.9,1.7-5.4,3s-2.7,2.9-3.5,4.6c-0.8,1.8-1.2,3.7-1.2,5.8v0.1c0,2.3,0.5,4.3,1.4,6c0.9,1.6,2.1,3,3.7,4
		c1.5,1,3.2,1.9,5.2,2.5c1.9,0.6,3.9,1.2,6.1,1.7c1.3,0.3,2.4,0.6,3.2,0.8c0.7,0.2,1.3,0.5,1.7,0.7s0.5,0.4,0.5,0.4s0.1,0.1,0.1,0.3
		v0.1c0,0.3-0.1,0.4-0.4,0.6c-0.4,0.2-1.1,0.5-2.5,0.5c-4.3,0-8.2-1.5-11.9-4.4l-1.3-1l-8.2,9.9l1.2,1.1c2.6,2.4,5.7,4.2,9.1,5.3
		c3.4,1.2,7,1.8,10.7,1.8c2.6,0,5-0.3,7.1-1c2.2-0.6,4.1-1.6,5.6-2.9c1.6-1.3,2.9-2.8,3.7-4.7c0.9-1.8,1.3-3.9,1.3-6.2v-0.1
		C615.8,400.1,615.4,398.2,614.6,396.6z"/>
</g>
<g>
	<path class="st1" d="M684.7,393.2c0-3.8-0.5-7-1.4-9.5s-2.2-4.6-3.7-6.1c-1.6-1.6-3.5-2.9-5.5-3.7c-2-0.9-4.6-1.3-7.6-1.3
		c-2.4,0-4.7,0.4-6.7,1.1c-2.1,0.7-3.9,1.8-5.4,3.2c-1.5,1.4-2.8,3.1-3.6,5c-0.9,1.9-1.3,4.1-1.3,6.5v0.1c0,2.1,0.4,4,1.1,5.7
		c0.7,1.7,1.8,3.2,3.1,4.4c1.3,1.2,2.9,2.1,4.6,2.7c1.8,0.6,3.7,1,5.8,1c1.9,0,3.7-0.3,5.2-1c0.6-0.2,1.1-0.5,1.6-0.8
		c-0.3,1.1-0.8,2-1.5,2.8c-1,1.2-2.5,1.8-4.4,1.8c-1.5,0-2.8-0.2-4.1-0.7s-2.5-1.2-3.8-2.3l-0.9-0.8l-6.5,9.5l0.8,0.6
		c1.9,1.5,4.1,2.7,6.4,3.6c2.4,0.9,5.1,1.4,8.2,1.4c3.2,0,6-0.6,8.4-1.7s4.5-2.7,6.2-4.8c1.6-2,2.9-4.5,3.7-7.3s1.2-5.9,1.2-9.3
		v-0.1H684.7z M671.6,387.7v0.1c0,1.2-0.4,2.1-1.2,2.9s-1.9,1.2-3.3,1.2c-1.5,0-2.6-0.4-3.4-1.2c-0.8-0.8-1.2-1.8-1.2-3v-0.1
		c0-1.3,0.4-2.3,1.2-3.1c0.8-0.8,1.9-1.2,3.3-1.2c1.5,0,2.6,0.4,3.4,1.2C671.2,385.4,671.6,386.4,671.6,387.7z"/>
	<path class="st1" d="M714.8,390.5c-1.4-1.1-3-2-4.7-2.5c-1.8-0.5-3.6-0.8-5.5-0.8c-1.4,0-2.7,0.1-3.8,0.4c-0.5,0.1-0.9,0.3-1.4,0.4
		l0.2-3.3h18.1v-11.4h-28.9l-1.2,22l7.7,4.3l0.6-0.3c0.9-0.5,1.8-1,2.8-1.3c0.9-0.3,1.9-0.5,3-0.5c1.5,0,2.7,0.3,3.6,1
		c0.8,0.6,1.2,1.4,1.2,2.5v0.1c0,1.1-0.4,1.9-1.2,2.6s-2.1,1-3.6,1s-3-0.3-4.4-1c-1.5-0.7-3-1.7-4.6-3.1l-0.8-0.7l-7.8,9.1l0.8,0.7
		c2.2,2,4.6,3.6,7.3,4.8c2.7,1.2,6,1.8,9.7,1.8c2.5,0,4.9-0.3,7-1s4-1.7,5.6-3s2.8-2.9,3.7-4.8s1.3-4.1,1.3-6.5v-0.1
		c0-2.3-0.4-4.4-1.3-6.1C717.3,393.1,716.1,391.6,714.8,390.5z"/>
	<path class="st1" d="M770,394.8L770,394.8c-0.8-1.7-2-3.2-3.3-4.3c-1.4-1.1-3-2-4.7-2.5c-1.8-0.5-3.6-0.8-5.5-0.8
		c-1.4,0-2.7,0.1-3.8,0.4c-0.5,0.1-0.9,0.3-1.4,0.4l0.2-3.3h18.1v-11.4h-28.9l-1.2,22l7.7,4.3l0.6-0.3c0.9-0.5,1.8-1,2.8-1.3
		c0.9-0.3,1.9-0.5,3-0.5c1.5,0,2.7,0.3,3.6,1c0.8,0.6,1.2,1.4,1.2,2.5v0.1c0,1.1-0.4,1.9-1.2,2.6s-2.1,1-3.6,1s-3-0.3-4.4-1
		c-1.5-0.7-3-1.7-4.6-3.1l-0.8-0.7L736,409l0.8,0.7c2.2,2,4.6,3.6,7.3,4.8c2.7,1.2,6,1.8,9.7,1.8c2.5,0,4.9-0.3,7-1s4-1.7,5.6-3
		s2.8-2.9,3.7-4.8s1.3-4.1,1.3-6.5v-0.1C771.2,398.6,770.8,396.5,770,394.8z"/>
</g>
<circle class="st1" cx="728.2" cy="410.3" r="5.2"/>
</svg>
